<svg width="128" height="128" viewBox="0 0 128 128" fill="none" xmlns="http://www.w3.org/2000/svg">
<g clip-path="url(#clip0_1_2)">
<rect width="128" height="128" fill="#FFEB3C"/>
<path d="M-21.9161 20C-21.7994 20 -21.6828 19.8833 -21.5661 19.65C-21.4494 19.4167 -21.3911 19.0333 -21.3911 18.5V6.5C-21.3911 5.96667 -21.4494 5.59167 -21.5661 5.375C-21.6828 5.14167 -21.7994 5.01667 -21.9161 5H-17.2911C-17.3244 5 -17.3078 5.11667 -17.2411 5.35C-17.1744 5.58333 -17.0161 5.98333 -16.7661 6.55C-16.6661 6.76667 -16.4911 7.15 -16.2411 7.7C-15.9744 8.25 -15.6578 8.90833 -15.2911 9.675C-14.9244 10.425 -14.5328 11.2333 -14.1161 12.1C-13.6994 12.9667 -13.2744 13.85 -12.8411 14.75C-12.4078 15.6333 -11.9994 16.4667 -11.6161 17.25H-11.5911C-11.1911 16.45 -10.7744 15.6083 -10.3411 14.725C-9.90777 13.825 -9.47444 12.9333 -9.04111 12.05C-8.60777 11.1667 -8.20777 10.35 -7.84111 9.6C-7.47444 8.83333 -7.16611 8.18333 -6.91611 7.65C-6.64944 7.1 -6.46611 6.71667 -6.36611 6.5C-6.13277 5.96667 -5.98277 5.58333 -5.91611 5.35C-5.83277 5.11667 -5.80777 5 -5.84111 5H-1.24111C-1.35777 5 -1.47444 5.11667 -1.59111 5.35C-1.70777 5.58333 -1.76611 5.975 -1.76611 6.525V18.5C-1.76611 19.0333 -1.70777 19.4167 -1.59111 19.65C-1.47444 19.8833 -1.35777 20 -1.24111 20H-5.06611C-4.94944 20 -4.84111 19.8833 -4.74111 19.65C-4.62444 19.4167 -4.56611 19.0333 -4.56611 18.5V8.15H-4.61611C-4.96611 8.85 -5.34111 9.6 -5.74111 10.4C-6.12444 11.2 -6.51611 12.0083 -6.91611 12.825C-7.31611 13.625 -7.69111 14.4 -8.04111 15.15C-8.39111 15.8833 -8.70777 16.5417 -8.99111 17.125C-9.25777 17.7083 -9.46611 18.1667 -9.61611 18.5C-9.84944 19.0167 -9.97444 19.3917 -9.99111 19.625C-9.99111 19.8583 -9.94944 19.9833 -9.86611 20H-13.3661C-13.2828 20 -13.2411 19.8917 -13.2411 19.675C-13.2411 19.4417 -13.3661 19.05 -13.6161 18.5C-13.7328 18.2167 -13.9244 17.8 -14.1911 17.25C-14.4578 16.7 -14.7661 16.0583 -15.1161 15.325C-15.4494 14.575 -15.8161 13.7917 -16.2161 12.975C-16.6161 12.1417 -17.0161 11.3083 -17.4161 10.475C-17.7994 9.64167 -18.1661 8.86667 -18.5161 8.15H-18.5911V18.5C-18.5911 19.0333 -18.5328 19.4167 -18.4161 19.65C-18.2994 19.8833 -18.1828 20 -18.0661 20H-21.9161ZM1.76553 20C1.8822 20 1.99887 19.8833 2.11553 19.65C2.2322 19.4167 2.29053 19.0333 2.29053 18.5V6.5C2.29053 5.96667 2.2322 5.59167 2.11553 5.375C1.99887 5.14167 1.8822 5.01667 1.76553 5H5.61553C5.49887 5 5.3822 5.11667 5.26553 5.35C5.14887 5.58333 5.09053 5.975 5.09053 6.525V18.5C5.09053 19.0333 5.14887 19.4167 5.26553 19.65C5.3822 19.8833 5.49887 20 5.61553 20H1.76553ZM15.5759 20.25C13.3092 20.25 11.5176 19.625 10.2009 18.375C8.90089 17.1083 8.25089 15.1667 8.25089 12.55C8.25089 11.0167 8.54255 9.66667 9.12589 8.5C9.70922 7.31667 10.6342 6.4 11.9009 5.75C13.1676 5.08333 14.8092 4.75 16.8259 4.75C18.4092 4.75 19.7176 4.83333 20.7509 5C21.8009 5.16667 22.5176 5.33333 22.9009 5.5V6L23.4009 8.25C22.9509 7.91667 22.1592 7.58333 21.0259 7.25C19.8926 6.91667 18.5092 6.75 16.8759 6.75C15.5426 6.75 14.4426 7 13.5759 7.5C12.7092 7.98333 12.0676 8.65833 11.6509 9.525C11.2509 10.3917 11.0509 11.4 11.0509 12.55C11.0509 13.75 11.2342 14.775 11.6009 15.625C11.9842 16.475 12.5842 17.125 13.4009 17.575C14.2176 18.0083 15.2842 18.225 16.6009 18.225C17.7342 18.225 18.6342 18.1 19.3009 17.85C19.9676 17.6 20.4426 17.2667 20.7259 16.85C21.0092 16.4167 21.1509 15.95 21.1509 15.45V14.8C21.1509 14.4167 21.1176 14.2 21.0509 14.15C21.0009 14.0833 20.7842 14.05 20.4009 14.05H19.6009C18.6676 14.05 17.9176 14.1083 17.3509 14.225C16.8009 14.3417 16.4509 14.4583 16.3009 14.575L16.5509 12.6V12.1H24.4259C24.3092 12.1167 24.1926 12.2417 24.0759 12.475C23.9759 12.6917 23.9259 13.0667 23.9259 13.6V18.5C23.9259 19.0333 23.9759 19.4167 24.0759 19.65C24.1926 19.8833 24.3092 20 24.4259 20H21.1509V19.425L21.2009 18.725L21.1509 18.675C20.8842 18.9583 20.5342 19.225 20.1009 19.475C19.6676 19.7083 19.0842 19.8917 18.3509 20.025C17.6342 20.175 16.7092 20.25 15.5759 20.25ZM27.1806 20C27.2972 20 27.4139 19.8833 27.5306 19.65C27.6472 19.4167 27.7056 19.0333 27.7056 18.5V6.5C27.7056 5.96667 27.6472 5.59167 27.5306 5.375C27.4139 5.14167 27.2972 5.01667 27.1806 5H31.8056C31.7722 5 31.7889 5.11667 31.8556 5.35C31.9222 5.58333 32.0806 5.98333 32.3306 6.55C32.4306 6.76667 32.6056 7.15 32.8556 7.7C33.1222 8.25 33.4389 8.90833 33.8056 9.675C34.1722 10.425 34.5639 11.2333 34.9806 12.1C35.3972 12.9667 35.8222 13.85 36.2556 14.75C36.6889 15.6333 37.0972 16.4667 37.4806 17.25H37.5056C37.9056 16.45 38.3222 15.6083 38.7556 14.725C39.1889 13.825 39.6222 12.9333 40.0556 12.05C40.4889 11.1667 40.8889 10.35 41.2556 9.6C41.6222 8.83333 41.9306 8.18333 42.1806 7.65C42.4472 7.1 42.6306 6.71667 42.7306 6.5C42.9639 5.96667 43.1139 5.58333 43.1806 5.35C43.2639 5.11667 43.2889 5 43.2556 5H47.8556C47.7389 5 47.6222 5.11667 47.5056 5.35C47.3889 5.58333 47.3306 5.975 47.3306 6.525V18.5C47.3306 19.0333 47.3889 19.4167 47.5056 19.65C47.6222 19.8833 47.7389 20 47.8556 20H44.0306C44.1472 20 44.2556 19.8833 44.3556 19.65C44.4722 19.4167 44.5306 19.0333 44.5306 18.5V8.15H44.4806C44.1306 8.85 43.7556 9.6 43.3556 10.4C42.9722 11.2 42.5806 12.0083 42.1806 12.825C41.7806 13.625 41.4056 14.4 41.0556 15.15C40.7056 15.8833 40.3889 16.5417 40.1056 17.125C39.8389 17.7083 39.6306 18.1667 39.4806 18.5C39.2472 19.0167 39.1222 19.3917 39.1056 19.625C39.1056 19.8583 39.1472 19.9833 39.2306 20H35.7306C35.8139 20 35.8556 19.8917 35.8556 19.675C35.8556 19.4417 35.7306 19.05 35.4806 18.5C35.3639 18.2167 35.1722 17.8 34.9056 17.25C34.6389 16.7 34.3306 16.0583 33.9806 15.325C33.6472 14.575 33.2806 13.7917 32.8806 12.975C32.4806 12.1417 32.0806 11.3083 31.6806 10.475C31.2972 9.64167 30.9306 8.86667 30.5806 8.15H30.5056V18.5C30.5056 19.0333 30.5639 19.4167 30.6806 19.65C30.7972 19.8833 30.9139 20 31.0306 20H27.1806ZM50.8622 20C50.9789 20 51.0955 19.8833 51.2122 19.65C51.3289 19.4167 51.3872 19.0333 51.3872 18.5V6.5C51.3872 5.96667 51.3289 5.59167 51.2122 5.375C51.0955 5.14167 50.9789 5.01667 50.8622 5H54.7122C54.5955 5 54.4789 5.11667 54.3622 5.35C54.2455 5.58333 54.1872 5.975 54.1872 6.525V18.5C54.1872 19.0333 54.2455 19.4167 54.3622 19.65C54.4789 19.8833 54.5955 20 54.7122 20H50.8622ZM64.6726 20.25C62.4059 20.25 60.6142 19.625 59.2976 18.375C57.9976 17.1083 57.3476 15.1667 57.3476 12.55C57.3476 11.0167 57.6392 9.66667 58.2226 8.5C58.8059 7.31667 59.7309 6.4 60.9976 5.75C62.2642 5.08333 63.9059 4.75 65.9226 4.75C67.5059 4.75 68.8142 4.83333 69.8476 5C70.8976 5.16667 71.6142 5.33333 71.9976 5.5V6L72.4976 8.25C72.0476 7.91667 71.2559 7.58333 70.1226 7.25C68.9892 6.91667 67.6059 6.75 65.9726 6.75C64.6392 6.75 63.5392 7 62.6726 7.5C61.8059 7.98333 61.1642 8.65833 60.7476 9.525C60.3476 10.3917 60.1476 11.4 60.1476 12.55C60.1476 13.75 60.3309 14.775 60.6976 15.625C61.0809 16.475 61.6809 17.125 62.4976 17.575C63.3142 18.0083 64.3809 18.225 65.6976 18.225C66.8309 18.225 67.7309 18.1 68.3976 17.85C69.0642 17.6 69.5392 17.2667 69.8226 16.85C70.1059 16.4167 70.2476 15.95 70.2476 15.45V14.8C70.2476 14.4167 70.2142 14.2 70.1476 14.15C70.0976 14.0833 69.8809 14.05 69.4976 14.05H68.6976C67.7642 14.05 67.0142 14.1083 66.4476 14.225C65.8976 14.3417 65.5476 14.4583 65.3976 14.575L65.6476 12.6V12.1H73.5226C73.4059 12.1167 73.2892 12.2417 73.1726 12.475C73.0726 12.6917 73.0226 13.0667 73.0226 13.6V18.5C73.0226 19.0333 73.0726 19.4167 73.1726 19.65C73.2892 19.8833 73.4059 20 73.5226 20H70.2476V19.425L70.2976 18.725L70.2476 18.675C69.9809 18.9583 69.6309 19.225 69.1976 19.475C68.7642 19.7083 68.1809 19.8917 67.4476 20.025C66.7309 20.175 65.8059 20.25 64.6726 20.25ZM76.2773 20C76.3939 20 76.5106 19.8833 76.6273 19.65C76.7439 19.4167 76.8023 19.0333 76.8023 18.5V6.5C76.8023 5.96667 76.7439 5.59167 76.6273 5.375C76.5106 5.14167 76.3939 5.01667 76.2773 5H80.9023C80.8689 5 80.8856 5.11667 80.9523 5.35C81.0189 5.58333 81.1773 5.98333 81.4273 6.55C81.5273 6.76667 81.7023 7.15 81.9523 7.7C82.2189 8.25 82.5356 8.90833 82.9023 9.675C83.2689 10.425 83.6606 11.2333 84.0773 12.1C84.4939 12.9667 84.9189 13.85 85.3523 14.75C85.7856 15.6333 86.1939 16.4667 86.5773 17.25H86.6023C87.0023 16.45 87.4189 15.6083 87.8523 14.725C88.2856 13.825 88.7189 12.9333 89.1523 12.05C89.5856 11.1667 89.9856 10.35 90.3523 9.6C90.7189 8.83333 91.0273 8.18333 91.2773 7.65C91.5439 7.1 91.7273 6.71667 91.8273 6.5C92.0606 5.96667 92.2106 5.58333 92.2773 5.35C92.3606 5.11667 92.3856 5 92.3523 5H96.9523C96.8356 5 96.7189 5.11667 96.6023 5.35C96.4856 5.58333 96.4273 5.975 96.4273 6.525V18.5C96.4273 19.0333 96.4856 19.4167 96.6023 19.65C96.7189 19.8833 96.8356 20 96.9523 20H93.1273C93.2439 20 93.3523 19.8833 93.4523 19.65C93.5689 19.4167 93.6273 19.0333 93.6273 18.5V8.15H93.5773C93.2273 8.85 92.8523 9.6 92.4523 10.4C92.0689 11.2 91.6773 12.0083 91.2773 12.825C90.8773 13.625 90.5023 14.4 90.1523 15.15C89.8023 15.8833 89.4856 16.5417 89.2023 17.125C88.9356 17.7083 88.7273 18.1667 88.5773 18.5C88.3439 19.0167 88.2189 19.3917 88.2023 19.625C88.2023 19.8583 88.2439 19.9833 88.3273 20H84.8273C84.9106 20 84.9523 19.8917 84.9523 19.675C84.9523 19.4417 84.8273 19.05 84.5773 18.5C84.4606 18.2167 84.2689 17.8 84.0023 17.25C83.7356 16.7 83.4273 16.0583 83.0773 15.325C82.7439 14.575 82.3773 13.7917 81.9773 12.975C81.5773 12.1417 81.1773 11.3083 80.7773 10.475C80.3939 9.64167 80.0273 8.86667 79.6773 8.15H79.6023V18.5C79.6023 19.0333 79.6606 19.4167 79.7773 19.65C79.8939 19.8833 80.0106 20 80.1273 20H76.2773ZM99.9589 20C100.076 20 100.192 19.8833 100.309 19.65C100.426 19.4167 100.484 19.0333 100.484 18.5V6.5C100.484 5.96667 100.426 5.59167 100.309 5.375C100.192 5.14167 100.076 5.01667 99.9589 5H103.809C103.692 5 103.576 5.11667 103.459 5.35C103.342 5.58333 103.284 5.975 103.284 6.525V18.5C103.284 19.0333 103.342 19.4167 103.459 19.65C103.576 19.8833 103.692 20 103.809 20H99.9589ZM113.769 20.25C111.503 20.25 109.711 19.625 108.394 18.375C107.094 17.1083 106.444 15.1667 106.444 12.55C106.444 11.0167 106.736 9.66667 107.319 8.5C107.903 7.31667 108.828 6.4 110.094 5.75C111.361 5.08333 113.003 4.75 115.019 4.75C116.603 4.75 117.911 4.83333 118.944 5C119.994 5.16667 120.711 5.33333 121.094 5.5V6L121.594 8.25C121.144 7.91667 120.353 7.58333 119.219 7.25C118.086 6.91667 116.703 6.75 115.069 6.75C113.736 6.75 112.636 7 111.769 7.5C110.903 7.98333 110.261 8.65833 109.844 9.525C109.444 10.3917 109.244 11.4 109.244 12.55C109.244 13.75 109.428 14.775 109.794 15.625C110.178 16.475 110.778 17.125 111.594 17.575C112.411 18.0083 113.478 18.225 114.794 18.225C115.928 18.225 116.828 18.1 117.494 17.85C118.161 17.6 118.636 17.2667 118.919 16.85C119.203 16.4167 119.344 15.95 119.344 15.45V14.8C119.344 14.4167 119.311 14.2 119.244 14.15C119.194 14.0833 118.978 14.05 118.594 14.05H117.794C116.861 14.05 116.111 14.1083 115.544 14.225C114.994 14.3417 114.644 14.4583 114.494 14.575L114.744 12.6V12.1H122.619C122.503 12.1167 122.386 12.2417 122.269 12.475C122.169 12.6917 122.119 13.0667 122.119 13.6V18.5C122.119 19.0333 122.169 19.4167 122.269 19.65C122.386 19.8833 122.503 20 122.619 20H119.344V19.425L119.394 18.725L119.344 18.675C119.078 18.9583 118.728 19.225 118.294 19.475C117.861 19.7083 117.278 19.8917 116.544 20.025C115.828 20.175 114.903 20.25 113.769 20.25ZM125.374 20C125.491 20 125.607 19.8833 125.724 19.65C125.841 19.4167 125.899 19.0333 125.899 18.5V6.5C125.899 5.96667 125.841 5.59167 125.724 5.375C125.607 5.14167 125.491 5.01667 125.374 5H129.999C129.966 5 129.982 5.11667 130.049 5.35C130.116 5.58333 130.274 5.98333 130.524 6.55C130.624 6.76667 130.799 7.15 131.049 7.7C131.316 8.25 131.632 8.90833 131.999 9.675C132.366 10.425 132.757 11.2333 133.174 12.1C133.591 12.9667 134.016 13.85 134.449 14.75C134.882 15.6333 135.291 16.4667 135.674 17.25H135.699C136.099 16.45 136.516 15.6083 136.949 14.725C137.382 13.825 137.816 12.9333 138.249 12.05C138.682 11.1667 139.082 10.35 139.449 9.6C139.816 8.83333 140.124 8.18333 140.374 7.65C140.641 7.1 140.824 6.71667 140.924 6.5C141.157 5.96667 141.307 5.58333 141.374 5.35C141.457 5.11667 141.482 5 141.449 5H146.049C145.932 5 145.816 5.11667 145.699 5.35C145.582 5.58333 145.524 5.975 145.524 6.525V18.5C145.524 19.0333 145.582 19.4167 145.699 19.65C145.816 19.8833 145.932 20 146.049 20H142.224C142.341 20 142.449 19.8833 142.549 19.65C142.666 19.4167 142.724 19.0333 142.724 18.5V8.15H142.674C142.324 8.85 141.949 9.6 141.549 10.4C141.166 11.2 140.774 12.0083 140.374 12.825C139.974 13.625 139.599 14.4 139.249 15.15C138.899 15.8833 138.582 16.5417 138.299 17.125C138.032 17.7083 137.824 18.1667 137.674 18.5C137.441 19.0167 137.316 19.3917 137.299 19.625C137.299 19.8583 137.341 19.9833 137.424 20H133.924C134.007 20 134.049 19.8917 134.049 19.675C134.049 19.4417 133.924 19.05 133.674 18.5C133.557 18.2167 133.366 17.8 133.099 17.25C132.832 16.7 132.524 16.0583 132.174 15.325C131.841 14.575 131.474 13.7917 131.074 12.975C130.674 12.1417 130.274 11.3083 129.874 10.475C129.491 9.64167 129.124 8.86667 128.774 8.15H128.699V18.5C128.699 19.0333 128.757 19.4167 128.874 19.65C128.991 19.8833 129.107 20 129.224 20H125.374ZM149.056 20C149.172 20 149.289 19.8833 149.406 19.65C149.522 19.4167 149.581 19.0333 149.581 18.5V6.5C149.581 5.96667 149.522 5.59167 149.406 5.375C149.289 5.14167 149.172 5.01667 149.056 5H152.906C152.789 5 152.672 5.11667 152.556 5.35C152.439 5.58333 152.381 5.975 152.381 6.525V18.5C152.381 19.0333 152.439 19.4167 152.556 19.65C152.672 19.8833 152.789 20 152.906 20H149.056ZM162.866 20.25C160.599 20.25 158.808 19.625 157.491 18.375C156.191 17.1083 155.541 15.1667 155.541 12.55C155.541 11.0167 155.833 9.66667 156.416 8.5C156.999 7.31667 157.924 6.4 159.191 5.75C160.458 5.08333 162.099 4.75 164.116 4.75C165.699 4.75 167.008 4.83333 168.041 5C169.091 5.16667 169.808 5.33333 170.191 5.5V6L170.691 8.25C170.241 7.91667 169.449 7.58333 168.316 7.25C167.183 6.91667 165.799 6.75 164.166 6.75C162.833 6.75 161.733 7 160.866 7.5C159.999 7.98333 159.358 8.65833 158.941 9.525C158.541 10.3917 158.341 11.4 158.341 12.55C158.341 13.75 158.524 14.775 158.891 15.625C159.274 16.475 159.874 17.125 160.691 17.575C161.508 18.0083 162.574 18.225 163.891 18.225C165.024 18.225 165.924 18.1 166.591 17.85C167.258 17.6 167.733 17.2667 168.016 16.85C168.299 16.4167 168.441 15.95 168.441 15.45V14.8C168.441 14.4167 168.408 14.2 168.341 14.15C168.291 14.0833 168.074 14.05 167.691 14.05H166.891C165.958 14.05 165.208 14.1083 164.641 14.225C164.091 14.3417 163.741 14.4583 163.591 14.575L163.841 12.6V12.1H171.716C171.599 12.1167 171.483 12.2417 171.366 12.475C171.266 12.6917 171.216 13.0667 171.216 13.6V18.5C171.216 19.0333 171.266 19.4167 171.366 19.65C171.483 19.8833 171.599 20 171.716 20H168.441V19.425L168.491 18.725L168.441 18.675C168.174 18.9583 167.824 19.225 167.391 19.475C166.958 19.7083 166.374 19.8917 165.641 20.025C164.924 20.175 163.999 20.25 162.866 20.25ZM-21.9161 46C-21.7994 46 -21.6828 45.8833 -21.5661 45.65C-21.4494 45.4167 -21.3911 45.0333 -21.3911 44.5V32.5C-21.3911 31.9667 -21.4494 31.5917 -21.5661 31.375C-21.6828 31.1417 -21.7994 31.0167 -21.9161 31H-17.2911C-17.3244 31 -17.3078 31.1167 -17.2411 31.35C-17.1744 31.5833 -17.0161 31.9833 -16.7661 32.55C-16.6661 32.7667 -16.4911 33.15 -16.2411 33.7C-15.9744 34.25 -15.6578 34.9083 -15.2911 35.675C-14.9244 36.425 -14.5328 37.2333 -14.1161 38.1C-13.6994 38.9667 -13.2744 39.85 -12.8411 40.75C-12.4078 41.6333 -11.9994 42.4667 -11.6161 43.25H-11.5911C-11.1911 42.45 -10.7744 41.6083 -10.3411 40.725C-9.90777 39.825 -9.47444 38.9333 -9.04111 38.05C-8.60777 37.1667 -8.20777 36.35 -7.84111 35.6C-7.47444 34.8333 -7.16611 34.1833 -6.91611 33.65C-6.64944 33.1 -6.46611 32.7167 -6.36611 32.5C-6.13277 31.9667 -5.98277 31.5833 -5.91611 31.35C-5.83277 31.1167 -5.80777 31 -5.84111 31H-1.24111C-1.35777 31 -1.47444 31.1167 -1.59111 31.35C-1.70777 31.5833 -1.76611 31.975 -1.76611 32.525V44.5C-1.76611 45.0333 -1.70777 45.4167 -1.59111 45.65C-1.47444 45.8833 -1.35777 46 -1.24111 46H-5.06611C-4.94944 46 -4.84111 45.8833 -4.74111 45.65C-4.62444 45.4167 -4.56611 45.0333 -4.56611 44.5V34.15H-4.61611C-4.96611 34.85 -5.34111 35.6 -5.74111 36.4C-6.12444 37.2 -6.51611 38.0083 -6.91611 38.825C-7.31611 39.625 -7.69111 40.4 -8.04111 41.15C-8.39111 41.8833 -8.70777 42.5417 -8.99111 43.125C-9.25777 43.7083 -9.46611 44.1667 -9.61611 44.5C-9.84944 45.0167 -9.97444 45.3917 -9.99111 45.625C-9.99111 45.8583 -9.94944 45.9833 -9.86611 46H-13.3661C-13.2828 46 -13.2411 45.8917 -13.2411 45.675C-13.2411 45.4417 -13.3661 45.05 -13.6161 44.5C-13.7328 44.2167 -13.9244 43.8 -14.1911 43.25C-14.4578 42.7 -14.7661 42.0583 -15.1161 41.325C-15.4494 40.575 -15.8161 39.7917 -16.2161 38.975C-16.6161 38.1417 -17.0161 37.3083 -17.4161 36.475C-17.7994 35.6417 -18.1661 34.8667 -18.5161 34.15H-18.5911V44.5C-18.5911 45.0333 -18.5328 45.4167 -18.4161 45.65C-18.2994 45.8833 -18.1828 46 -18.0661 46H-21.9161ZM1.76553 46C1.8822 46 1.99887 45.8833 2.11553 45.65C2.2322 45.4167 2.29053 45.0333 2.29053 44.5V32.5C2.29053 31.9667 2.2322 31.5917 2.11553 31.375C1.99887 31.1417 1.8822 31.0167 1.76553 31H5.61553C5.49887 31 5.3822 31.1167 5.26553 31.35C5.14887 31.5833 5.09053 31.975 5.09053 32.525V44.5C5.09053 45.0333 5.14887 45.4167 5.26553 45.65C5.3822 45.8833 5.49887 46 5.61553 46H1.76553ZM15.5759 46.25C13.3092 46.25 11.5176 45.625 10.2009 44.375C8.90089 43.1083 8.25089 41.1667 8.25089 38.55C8.25089 37.0167 8.54255 35.6667 9.12589 34.5C9.70922 33.3167 10.6342 32.4 11.9009 31.75C13.1676 31.0833 14.8092 30.75 16.8259 30.75C18.4092 30.75 19.7176 30.8333 20.7509 31C21.8009 31.1667 22.5176 31.3333 22.9009 31.5V32L23.4009 34.25C22.9509 33.9167 22.1592 33.5833 21.0259 33.25C19.8926 32.9167 18.5092 32.75 16.8759 32.75C15.5426 32.75 14.4426 33 13.5759 33.5C12.7092 33.9833 12.0676 34.6583 11.6509 35.525C11.2509 36.3917 11.0509 37.4 11.0509 38.55C11.0509 39.75 11.2342 40.775 11.6009 41.625C11.9842 42.475 12.5842 43.125 13.4009 43.575C14.2176 44.0083 15.2842 44.225 16.6009 44.225C17.7342 44.225 18.6342 44.1 19.3009 43.85C19.9676 43.6 20.4426 43.2667 20.7259 42.85C21.0092 42.4167 21.1509 41.95 21.1509 41.45V40.8C21.1509 40.4167 21.1176 40.2 21.0509 40.15C21.0009 40.0833 20.7842 40.05 20.4009 40.05H19.6009C18.6676 40.05 17.9176 40.1083 17.3509 40.225C16.8009 40.3417 16.4509 40.4583 16.3009 40.575L16.5509 38.6V38.1H24.4259C24.3092 38.1167 24.1926 38.2417 24.0759 38.475C23.9759 38.6917 23.9259 39.0667 23.9259 39.6V44.5C23.9259 45.0333 23.9759 45.4167 24.0759 45.65C24.1926 45.8833 24.3092 46 24.4259 46H21.1509V45.425L21.2009 44.725L21.1509 44.675C20.8842 44.9583 20.5342 45.225 20.1009 45.475C19.6676 45.7083 19.0842 45.8917 18.3509 46.025C17.6342 46.175 16.7092 46.25 15.5759 46.25ZM27.1806 46C27.2972 46 27.4139 45.8833 27.5306 45.65C27.6472 45.4167 27.7056 45.0333 27.7056 44.5V32.5C27.7056 31.9667 27.6472 31.5917 27.5306 31.375C27.4139 31.1417 27.2972 31.0167 27.1806 31H31.8056C31.7722 31 31.7889 31.1167 31.8556 31.35C31.9222 31.5833 32.0806 31.9833 32.3306 32.55C32.4306 32.7667 32.6056 33.15 32.8556 33.7C33.1222 34.25 33.4389 34.9083 33.8056 35.675C34.1722 36.425 34.5639 37.2333 34.9806 38.1C35.3972 38.9667 35.8222 39.85 36.2556 40.75C36.6889 41.6333 37.0972 42.4667 37.4806 43.25H37.5056C37.9056 42.45 38.3222 41.6083 38.7556 40.725C39.1889 39.825 39.6222 38.9333 40.0556 38.05C40.4889 37.1667 40.8889 36.35 41.2556 35.6C41.6222 34.8333 41.9306 34.1833 42.1806 33.65C42.4472 33.1 42.6306 32.7167 42.7306 32.5C42.9639 31.9667 43.1139 31.5833 43.1806 31.35C43.2639 31.1167 43.2889 31 43.2556 31H47.8556C47.7389 31 47.6222 31.1167 47.5056 31.35C47.3889 31.5833 47.3306 31.975 47.3306 32.525V44.5C47.3306 45.0333 47.3889 45.4167 47.5056 45.65C47.6222 45.8833 47.7389 46 47.8556 46H44.0306C44.1472 46 44.2556 45.8833 44.3556 45.65C44.4722 45.4167 44.5306 45.0333 44.5306 44.5V34.15H44.4806C44.1306 34.85 43.7556 35.6 43.3556 36.4C42.9722 37.2 42.5806 38.0083 42.1806 38.825C41.7806 39.625 41.4056 40.4 41.0556 41.15C40.7056 41.8833 40.3889 42.5417 40.1056 43.125C39.8389 43.7083 39.6306 44.1667 39.4806 44.5C39.2472 45.0167 39.1222 45.3917 39.1056 45.625C39.1056 45.8583 39.1472 45.9833 39.2306 46H35.7306C35.8139 46 35.8556 45.8917 35.8556 45.675C35.8556 45.4417 35.7306 45.05 35.4806 44.5C35.3639 44.2167 35.1722 43.8 34.9056 43.25C34.6389 42.7 34.3306 42.0583 33.9806 41.325C33.6472 40.575 33.2806 39.7917 32.8806 38.975C32.4806 38.1417 32.0806 37.3083 31.6806 36.475C31.2972 35.6417 30.9306 34.8667 30.5806 34.15H30.5056V44.5C30.5056 45.0333 30.5639 45.4167 30.6806 45.65C30.7972 45.8833 30.9139 46 31.0306 46H27.1806ZM50.8622 46C50.9789 46 51.0955 45.8833 51.2122 45.65C51.3289 45.4167 51.3872 45.0333 51.3872 44.5V32.5C51.3872 31.9667 51.3289 31.5917 51.2122 31.375C51.0955 31.1417 50.9789 31.0167 50.8622 31H54.7122C54.5955 31 54.4789 31.1167 54.3622 31.35C54.2455 31.5833 54.1872 31.975 54.1872 32.525V44.5C54.1872 45.0333 54.2455 45.4167 54.3622 45.65C54.4789 45.8833 54.5955 46 54.7122 46H50.8622ZM64.6726 46.25C62.4059 46.25 60.6142 45.625 59.2976 44.375C57.9976 43.1083 57.3476 41.1667 57.3476 38.55C57.3476 37.0167 57.6392 35.6667 58.2226 34.5C58.8059 33.3167 59.7309 32.4 60.9976 31.75C62.2642 31.0833 63.9059 30.75 65.9226 30.75C67.5059 30.75 68.8142 30.8333 69.8476 31C70.8976 31.1667 71.6142 31.3333 71.9976 31.5V32L72.4976 34.25C72.0476 33.9167 71.2559 33.5833 70.1226 33.25C68.9892 32.9167 67.6059 32.75 65.9726 32.75C64.6392 32.75 63.5392 33 62.6726 33.5C61.8059 33.9833 61.1642 34.6583 60.7476 35.525C60.3476 36.3917 60.1476 37.4 60.1476 38.55C60.1476 39.75 60.3309 40.775 60.6976 41.625C61.0809 42.475 61.6809 43.125 62.4976 43.575C63.3142 44.0083 64.3809 44.225 65.6976 44.225C66.8309 44.225 67.7309 44.1 68.3976 43.85C69.0642 43.6 69.5392 43.2667 69.8226 42.85C70.1059 42.4167 70.2476 41.95 70.2476 41.45V40.8C70.2476 40.4167 70.2142 40.2 70.1476 40.15C70.0976 40.0833 69.8809 40.05 69.4976 40.05H68.6976C67.7642 40.05 67.0142 40.1083 66.4476 40.225C65.8976 40.3417 65.5476 40.4583 65.3976 40.575L65.6476 38.6V38.1H73.5226C73.4059 38.1167 73.2892 38.2417 73.1726 38.475C73.0726 38.6917 73.0226 39.0667 73.0226 39.6V44.5C73.0226 45.0333 73.0726 45.4167 73.1726 45.65C73.2892 45.8833 73.4059 46 73.5226 46H70.2476V45.425L70.2976 44.725L70.2476 44.675C69.9809 44.9583 69.6309 45.225 69.1976 45.475C68.7642 45.7083 68.1809 45.8917 67.4476 46.025C66.7309 46.175 65.8059 46.25 64.6726 46.25ZM76.2773 46C76.3939 46 76.5106 45.8833 76.6273 45.65C76.7439 45.4167 76.8023 45.0333 76.8023 44.5V32.5C76.8023 31.9667 76.7439 31.5917 76.6273 31.375C76.5106 31.1417 76.3939 31.0167 76.2773 31H80.9023C80.8689 31 80.8856 31.1167 80.9523 31.35C81.0189 31.5833 81.1773 31.9833 81.4273 32.55C81.5273 32.7667 81.7023 33.15 81.9523 33.7C82.2189 34.25 82.5356 34.9083 82.9023 35.675C83.2689 36.425 83.6606 37.2333 84.0773 38.1C84.4939 38.9667 84.9189 39.85 85.3523 40.75C85.7856 41.6333 86.1939 42.4667 86.5773 43.25H86.6023C87.0023 42.45 87.4189 41.6083 87.8523 40.725C88.2856 39.825 88.7189 38.9333 89.1523 38.05C89.5856 37.1667 89.9856 36.35 90.3523 35.6C90.7189 34.8333 91.0273 34.1833 91.2773 33.65C91.5439 33.1 91.7273 32.7167 91.8273 32.5C92.0606 31.9667 92.2106 31.5833 92.2773 31.35C92.3606 31.1167 92.3856 31 92.3523 31H96.9523C96.8356 31 96.7189 31.1167 96.6023 31.35C96.4856 31.5833 96.4273 31.975 96.4273 32.525V44.5C96.4273 45.0333 96.4856 45.4167 96.6023 45.65C96.7189 45.8833 96.8356 46 96.9523 46H93.1273C93.2439 46 93.3523 45.8833 93.4523 45.65C93.5689 45.4167 93.6273 45.0333 93.6273 44.5V34.15H93.5773C93.2273 34.85 92.8523 35.6 92.4523 36.4C92.0689 37.2 91.6773 38.0083 91.2773 38.825C90.8773 39.625 90.5023 40.4 90.1523 41.15C89.8023 41.8833 89.4856 42.5417 89.2023 43.125C88.9356 43.7083 88.7273 44.1667 88.5773 44.5C88.3439 45.0167 88.2189 45.3917 88.2023 45.625C88.2023 45.8583 88.2439 45.9833 88.3273 46H84.8273C84.9106 46 84.9523 45.8917 84.9523 45.675C84.9523 45.4417 84.8273 45.05 84.5773 44.5C84.4606 44.2167 84.2689 43.8 84.0023 43.25C83.7356 42.7 83.4273 42.0583 83.0773 41.325C82.7439 40.575 82.3773 39.7917 81.9773 38.975C81.5773 38.1417 81.1773 37.3083 80.7773 36.475C80.3939 35.6417 80.0273 34.8667 79.6773 34.15H79.6023V44.5C79.6023 45.0333 79.6606 45.4167 79.7773 45.65C79.8939 45.8833 80.0106 46 80.1273 46H76.2773ZM99.9589 46C100.076 46 100.192 45.8833 100.309 45.65C100.426 45.4167 100.484 45.0333 100.484 44.5V32.5C100.484 31.9667 100.426 31.5917 100.309 31.375C100.192 31.1417 100.076 31.0167 99.9589 31H103.809C103.692 31 103.576 31.1167 103.459 31.35C103.342 31.5833 103.284 31.975 103.284 32.525V44.5C103.284 45.0333 103.342 45.4167 103.459 45.65C103.576 45.8833 103.692 46 103.809 46H99.9589ZM113.769 46.25C111.503 46.25 109.711 45.625 108.394 44.375C107.094 43.1083 106.444 41.1667 106.444 38.55C106.444 37.0167 106.736 35.6667 107.319 34.5C107.903 33.3167 108.828 32.4 110.094 31.75C111.361 31.0833 113.003 30.75 115.019 30.75C116.603 30.75 117.911 30.8333 118.944 31C119.994 31.1667 120.711 31.3333 121.094 31.5V32L121.594 34.25C121.144 33.9167 120.353 33.5833 119.219 33.25C118.086 32.9167 116.703 32.75 115.069 32.75C113.736 32.75 112.636 33 111.769 33.5C110.903 33.9833 110.261 34.6583 109.844 35.525C109.444 36.3917 109.244 37.4 109.244 38.55C109.244 39.75 109.428 40.775 109.794 41.625C110.178 42.475 110.778 43.125 111.594 43.575C112.411 44.0083 113.478 44.225 114.794 44.225C115.928 44.225 116.828 44.1 117.494 43.85C118.161 43.6 118.636 43.2667 118.919 42.85C119.203 42.4167 119.344 41.95 119.344 41.45V40.8C119.344 40.4167 119.311 40.2 119.244 40.15C119.194 40.0833 118.978 40.05 118.594 40.05H117.794C116.861 40.05 116.111 40.1083 115.544 40.225C114.994 40.3417 114.644 40.4583 114.494 40.575L114.744 38.6V38.1H122.619C122.503 38.1167 122.386 38.2417 122.269 38.475C122.169 38.6917 122.119 39.0667 122.119 39.6V44.5C122.119 45.0333 122.169 45.4167 122.269 45.65C122.386 45.8833 122.503 46 122.619 46H119.344V45.425L119.394 44.725L119.344 44.675C119.078 44.9583 118.728 45.225 118.294 45.475C117.861 45.7083 117.278 45.8917 116.544 46.025C115.828 46.175 114.903 46.25 113.769 46.25ZM125.374 46C125.491 46 125.607 45.8833 125.724 45.65C125.841 45.4167 125.899 45.0333 125.899 44.5V32.5C125.899 31.9667 125.841 31.5917 125.724 31.375C125.607 31.1417 125.491 31.0167 125.374 31H129.999C129.966 31 129.982 31.1167 130.049 31.35C130.116 31.5833 130.274 31.9833 130.524 32.55C130.624 32.7667 130.799 33.15 131.049 33.7C131.316 34.25 131.632 34.9083 131.999 35.675C132.366 36.425 132.757 37.2333 133.174 38.1C133.591 38.9667 134.016 39.85 134.449 40.75C134.882 41.6333 135.291 42.4667 135.674 43.25H135.699C136.099 42.45 136.516 41.6083 136.949 40.725C137.382 39.825 137.816 38.9333 138.249 38.05C138.682 37.1667 139.082 36.35 139.449 35.6C139.816 34.8333 140.124 34.1833 140.374 33.65C140.641 33.1 140.824 32.7167 140.924 32.5C141.157 31.9667 141.307 31.5833 141.374 31.35C141.457 31.1167 141.482 31 141.449 31H146.049C145.932 31 145.816 31.1167 145.699 31.35C145.582 31.5833 145.524 31.975 145.524 32.525V44.5C145.524 45.0333 145.582 45.4167 145.699 45.65C145.816 45.8833 145.932 46 146.049 46H142.224C142.341 46 142.449 45.8833 142.549 45.65C142.666 45.4167 142.724 45.0333 142.724 44.5V34.15H142.674C142.324 34.85 141.949 35.6 141.549 36.4C141.166 37.2 140.774 38.0083 140.374 38.825C139.974 39.625 139.599 40.4 139.249 41.15C138.899 41.8833 138.582 42.5417 138.299 43.125C138.032 43.7083 137.824 44.1667 137.674 44.5C137.441 45.0167 137.316 45.3917 137.299 45.625C137.299 45.8583 137.341 45.9833 137.424 46H133.924C134.007 46 134.049 45.8917 134.049 45.675C134.049 45.4417 133.924 45.05 133.674 44.5C133.557 44.2167 133.366 43.8 133.099 43.25C132.832 42.7 132.524 42.0583 132.174 41.325C131.841 40.575 131.474 39.7917 131.074 38.975C130.674 38.1417 130.274 37.3083 129.874 36.475C129.491 35.6417 129.124 34.8667 128.774 34.15H128.699V44.5C128.699 45.0333 128.757 45.4167 128.874 45.65C128.991 45.8833 129.107 46 129.224 46H125.374ZM149.056 46C149.172 46 149.289 45.8833 149.406 45.65C149.522 45.4167 149.581 45.0333 149.581 44.5V32.5C149.581 31.9667 149.522 31.5917 149.406 31.375C149.289 31.1417 149.172 31.0167 149.056 31H152.906C152.789 31 152.672 31.1167 152.556 31.35C152.439 31.5833 152.381 31.975 152.381 32.525V44.5C152.381 45.0333 152.439 45.4167 152.556 45.65C152.672 45.8833 152.789 46 152.906 46H149.056ZM162.866 46.25C160.599 46.25 158.808 45.625 157.491 44.375C156.191 43.1083 155.541 41.1667 155.541 38.55C155.541 37.0167 155.833 35.6667 156.416 34.5C156.999 33.3167 157.924 32.4 159.191 31.75C160.458 31.0833 162.099 30.75 164.116 30.75C165.699 30.75 167.008 30.8333 168.041 31C169.091 31.1667 169.808 31.3333 170.191 31.5V32L170.691 34.25C170.241 33.9167 169.449 33.5833 168.316 33.25C167.183 32.9167 165.799 32.75 164.166 32.75C162.833 32.75 161.733 33 160.866 33.5C159.999 33.9833 159.358 34.6583 158.941 35.525C158.541 36.3917 158.341 37.4 158.341 38.55C158.341 39.75 158.524 40.775 158.891 41.625C159.274 42.475 159.874 43.125 160.691 43.575C161.508 44.0083 162.574 44.225 163.891 44.225C165.024 44.225 165.924 44.1 166.591 43.85C167.258 43.6 167.733 43.2667 168.016 42.85C168.299 42.4167 168.441 41.95 168.441 41.45V40.8C168.441 40.4167 168.408 40.2 168.341 40.15C168.291 40.0833 168.074 40.05 167.691 40.05H166.891C165.958 40.05 165.208 40.1083 164.641 40.225C164.091 40.3417 163.741 40.4583 163.591 40.575L163.841 38.6V38.1H171.716C171.599 38.1167 171.483 38.2417 171.366 38.475C171.266 38.6917 171.216 39.0667 171.216 39.6V44.5C171.216 45.0333 171.266 45.4167 171.366 45.65C171.483 45.8833 171.599 46 171.716 46H168.441V45.425L168.491 44.725L168.441 44.675C168.174 44.9583 167.824 45.225 167.391 45.475C166.958 45.7083 166.374 45.8917 165.641 46.025C164.924 46.175 163.999 46.25 162.866 46.25ZM-21.9161 72C-21.7994 72 -21.6828 71.8833 -21.5661 71.65C-21.4494 71.4167 -21.3911 71.0333 -21.3911 70.5V58.5C-21.3911 57.9667 -21.4494 57.5917 -21.5661 57.375C-21.6828 57.1417 -21.7994 57.0167 -21.9161 57H-17.2911C-17.3244 57 -17.3078 57.1167 -17.2411 57.35C-17.1744 57.5833 -17.0161 57.9833 -16.7661 58.55C-16.6661 58.7667 -16.4911 59.15 -16.2411 59.7C-15.9744 60.25 -15.6578 60.9083 -15.2911 61.675C-14.9244 62.425 -14.5328 63.2333 -14.1161 64.1C-13.6994 64.9667 -13.2744 65.85 -12.8411 66.75C-12.4078 67.6333 -11.9994 68.4667 -11.6161 69.25H-11.5911C-11.1911 68.45 -10.7744 67.6083 -10.3411 66.725C-9.90777 65.825 -9.47444 64.9333 -9.04111 64.05C-8.60777 63.1667 -8.20777 62.35 -7.84111 61.6C-7.47444 60.8333 -7.16611 60.1833 -6.91611 59.65C-6.64944 59.1 -6.46611 58.7167 -6.36611 58.5C-6.13277 57.9667 -5.98277 57.5833 -5.91611 57.35C-5.83277 57.1167 -5.80777 57 -5.84111 57H-1.24111C-1.35777 57 -1.47444 57.1167 -1.59111 57.35C-1.70777 57.5833 -1.76611 57.975 -1.76611 58.525V70.5C-1.76611 71.0333 -1.70777 71.4167 -1.59111 71.65C-1.47444 71.8833 -1.35777 72 -1.24111 72H-5.06611C-4.94944 72 -4.84111 71.8833 -4.74111 71.65C-4.62444 71.4167 -4.56611 71.0333 -4.56611 70.5V60.15H-4.61611C-4.96611 60.85 -5.34111 61.6 -5.74111 62.4C-6.12444 63.2 -6.51611 64.0083 -6.91611 64.825C-7.31611 65.625 -7.69111 66.4 -8.04111 67.15C-8.39111 67.8833 -8.70777 68.5417 -8.99111 69.125C-9.25777 69.7083 -9.46611 70.1667 -9.61611 70.5C-9.84944 71.0167 -9.97444 71.3917 -9.99111 71.625C-9.99111 71.8583 -9.94944 71.9833 -9.86611 72H-13.3661C-13.2828 72 -13.2411 71.8917 -13.2411 71.675C-13.2411 71.4417 -13.3661 71.05 -13.6161 70.5C-13.7328 70.2167 -13.9244 69.8 -14.1911 69.25C-14.4578 68.7 -14.7661 68.0583 -15.1161 67.325C-15.4494 66.575 -15.8161 65.7917 -16.2161 64.975C-16.6161 64.1417 -17.0161 63.3083 -17.4161 62.475C-17.7994 61.6417 -18.1661 60.8667 -18.5161 60.15H-18.5911V70.5C-18.5911 71.0333 -18.5328 71.4167 -18.4161 71.65C-18.2994 71.8833 -18.1828 72 -18.0661 72H-21.9161ZM1.76553 72C1.8822 72 1.99887 71.8833 2.11553 71.65C2.2322 71.4167 2.29053 71.0333 2.29053 70.5V58.5C2.29053 57.9667 2.2322 57.5917 2.11553 57.375C1.99887 57.1417 1.8822 57.0167 1.76553 57H5.61553C5.49887 57 5.3822 57.1167 5.26553 57.35C5.14887 57.5833 5.09053 57.975 5.09053 58.525V70.5C5.09053 71.0333 5.14887 71.4167 5.26553 71.65C5.3822 71.8833 5.49887 72 5.61553 72H1.76553ZM15.5759 72.25C13.3092 72.25 11.5176 71.625 10.2009 70.375C8.90089 69.1083 8.25089 67.1667 8.25089 64.55C8.25089 63.0167 8.54255 61.6667 9.12589 60.5C9.70922 59.3167 10.6342 58.4 11.9009 57.75C13.1676 57.0833 14.8092 56.75 16.8259 56.75C18.4092 56.75 19.7176 56.8333 20.7509 57C21.8009 57.1667 22.5176 57.3333 22.9009 57.5V58L23.4009 60.25C22.9509 59.9167 22.1592 59.5833 21.0259 59.25C19.8926 58.9167 18.5092 58.75 16.8759 58.75C15.5426 58.75 14.4426 59 13.5759 59.5C12.7092 59.9833 12.0676 60.6583 11.6509 61.525C11.2509 62.3917 11.0509 63.4 11.0509 64.55C11.0509 65.75 11.2342 66.775 11.6009 67.625C11.9842 68.475 12.5842 69.125 13.4009 69.575C14.2176 70.0083 15.2842 70.225 16.6009 70.225C17.7342 70.225 18.6342 70.1 19.3009 69.85C19.9676 69.6 20.4426 69.2667 20.7259 68.85C21.0092 68.4167 21.1509 67.95 21.1509 67.45V66.8C21.1509 66.4167 21.1176 66.2 21.0509 66.15C21.0009 66.0833 20.7842 66.05 20.4009 66.05H19.6009C18.6676 66.05 17.9176 66.1083 17.3509 66.225C16.8009 66.3417 16.4509 66.4583 16.3009 66.575L16.5509 64.6V64.1H24.4259C24.3092 64.1167 24.1926 64.2417 24.0759 64.475C23.9759 64.6917 23.9259 65.0667 23.9259 65.6V70.5C23.9259 71.0333 23.9759 71.4167 24.0759 71.65C24.1926 71.8833 24.3092 72 24.4259 72H21.1509V71.425L21.2009 70.725L21.1509 70.675C20.8842 70.9583 20.5342 71.225 20.1009 71.475C19.6676 71.7083 19.0842 71.8917 18.3509 72.025C17.6342 72.175 16.7092 72.25 15.5759 72.25ZM27.1806 72C27.2972 72 27.4139 71.8833 27.5306 71.65C27.6472 71.4167 27.7056 71.0333 27.7056 70.5V58.5C27.7056 57.9667 27.6472 57.5917 27.5306 57.375C27.4139 57.1417 27.2972 57.0167 27.1806 57H31.8056C31.7722 57 31.7889 57.1167 31.8556 57.35C31.9222 57.5833 32.0806 57.9833 32.3306 58.55C32.4306 58.7667 32.6056 59.15 32.8556 59.7C33.1222 60.25 33.4389 60.9083 33.8056 61.675C34.1722 62.425 34.5639 63.2333 34.9806 64.1C35.3972 64.9667 35.8222 65.85 36.2556 66.75C36.6889 67.6333 37.0972 68.4667 37.4806 69.25H37.5056C37.9056 68.45 38.3222 67.6083 38.7556 66.725C39.1889 65.825 39.6222 64.9333 40.0556 64.05C40.4889 63.1667 40.8889 62.35 41.2556 61.6C41.6222 60.8333 41.9306 60.1833 42.1806 59.65C42.4472 59.1 42.6306 58.7167 42.7306 58.5C42.9639 57.9667 43.1139 57.5833 43.1806 57.35C43.2639 57.1167 43.2889 57 43.2556 57H47.8556C47.7389 57 47.6222 57.1167 47.5056 57.35C47.3889 57.5833 47.3306 57.975 47.3306 58.525V70.5C47.3306 71.0333 47.3889 71.4167 47.5056 71.65C47.6222 71.8833 47.7389 72 47.8556 72H44.0306C44.1472 72 44.2556 71.8833 44.3556 71.65C44.4722 71.4167 44.5306 71.0333 44.5306 70.5V60.15H44.4806C44.1306 60.85 43.7556 61.6 43.3556 62.4C42.9722 63.2 42.5806 64.0083 42.1806 64.825C41.7806 65.625 41.4056 66.4 41.0556 67.15C40.7056 67.8833 40.3889 68.5417 40.1056 69.125C39.8389 69.7083 39.6306 70.1667 39.4806 70.5C39.2472 71.0167 39.1222 71.3917 39.1056 71.625C39.1056 71.8583 39.1472 71.9833 39.2306 72H35.7306C35.8139 72 35.8556 71.8917 35.8556 71.675C35.8556 71.4417 35.7306 71.05 35.4806 70.5C35.3639 70.2167 35.1722 69.8 34.9056 69.25C34.6389 68.7 34.3306 68.0583 33.9806 67.325C33.6472 66.575 33.2806 65.7917 32.8806 64.975C32.4806 64.1417 32.0806 63.3083 31.6806 62.475C31.2972 61.6417 30.9306 60.8667 30.5806 60.15H30.5056V70.5C30.5056 71.0333 30.5639 71.4167 30.6806 71.65C30.7972 71.8833 30.9139 72 31.0306 72H27.1806ZM50.8622 72C50.9789 72 51.0955 71.8833 51.2122 71.65C51.3289 71.4167 51.3872 71.0333 51.3872 70.5V58.5C51.3872 57.9667 51.3289 57.5917 51.2122 57.375C51.0955 57.1417 50.9789 57.0167 50.8622 57H54.7122C54.5955 57 54.4789 57.1167 54.3622 57.35C54.2455 57.5833 54.1872 57.975 54.1872 58.525V70.5C54.1872 71.0333 54.2455 71.4167 54.3622 71.65C54.4789 71.8833 54.5955 72 54.7122 72H50.8622ZM64.6726 72.25C62.4059 72.25 60.6142 71.625 59.2976 70.375C57.9976 69.1083 57.3476 67.1667 57.3476 64.55C57.3476 63.0167 57.6392 61.6667 58.2226 60.5C58.8059 59.3167 59.7309 58.4 60.9976 57.75C62.2642 57.0833 63.9059 56.75 65.9226 56.75C67.5059 56.75 68.8142 56.8333 69.8476 57C70.8976 57.1667 71.6142 57.3333 71.9976 57.5V58L72.4976 60.25C72.0476 59.9167 71.2559 59.5833 70.1226 59.25C68.9892 58.9167 67.6059 58.75 65.9726 58.75C64.6392 58.75 63.5392 59 62.6726 59.5C61.8059 59.9833 61.1642 60.6583 60.7476 61.525C60.3476 62.3917 60.1476 63.4 60.1476 64.55C60.1476 65.75 60.3309 66.775 60.6976 67.625C61.0809 68.475 61.6809 69.125 62.4976 69.575C63.3142 70.0083 64.3809 70.225 65.6976 70.225C66.8309 70.225 67.7309 70.1 68.3976 69.85C69.0642 69.6 69.5392 69.2667 69.8226 68.85C70.1059 68.4167 70.2476 67.95 70.2476 67.45V66.8C70.2476 66.4167 70.2142 66.2 70.1476 66.15C70.0976 66.0833 69.8809 66.05 69.4976 66.05H68.6976C67.7642 66.05 67.0142 66.1083 66.4476 66.225C65.8976 66.3417 65.5476 66.4583 65.3976 66.575L65.6476 64.6V64.1H73.5226C73.4059 64.1167 73.2892 64.2417 73.1726 64.475C73.0726 64.6917 73.0226 65.0667 73.0226 65.6V70.5C73.0226 71.0333 73.0726 71.4167 73.1726 71.65C73.2892 71.8833 73.4059 72 73.5226 72H70.2476V71.425L70.2976 70.725L70.2476 70.675C69.9809 70.9583 69.6309 71.225 69.1976 71.475C68.7642 71.7083 68.1809 71.8917 67.4476 72.025C66.7309 72.175 65.8059 72.25 64.6726 72.25ZM76.2773 72C76.3939 72 76.5106 71.8833 76.6273 71.65C76.7439 71.4167 76.8023 71.0333 76.8023 70.5V58.5C76.8023 57.9667 76.7439 57.5917 76.6273 57.375C76.5106 57.1417 76.3939 57.0167 76.2773 57H80.9023C80.8689 57 80.8856 57.1167 80.9523 57.35C81.0189 57.5833 81.1773 57.9833 81.4273 58.55C81.5273 58.7667 81.7023 59.15 81.9523 59.7C82.2189 60.25 82.5356 60.9083 82.9023 61.675C83.2689 62.425 83.6606 63.2333 84.0773 64.1C84.4939 64.9667 84.9189 65.85 85.3523 66.75C85.7856 67.6333 86.1939 68.4667 86.5773 69.25H86.6023C87.0023 68.45 87.4189 67.6083 87.8523 66.725C88.2856 65.825 88.7189 64.9333 89.1523 64.05C89.5856 63.1667 89.9856 62.35 90.3523 61.6C90.7189 60.8333 91.0273 60.1833 91.2773 59.65C91.5439 59.1 91.7273 58.7167 91.8273 58.5C92.0606 57.9667 92.2106 57.5833 92.2773 57.35C92.3606 57.1167 92.3856 57 92.3523 57H96.9523C96.8356 57 96.7189 57.1167 96.6023 57.35C96.4856 57.5833 96.4273 57.975 96.4273 58.525V70.5C96.4273 71.0333 96.4856 71.4167 96.6023 71.65C96.7189 71.8833 96.8356 72 96.9523 72H93.1273C93.2439 72 93.3523 71.8833 93.4523 71.65C93.5689 71.4167 93.6273 71.0333 93.6273 70.5V60.15H93.5773C93.2273 60.85 92.8523 61.6 92.4523 62.4C92.0689 63.2 91.6773 64.0083 91.2773 64.825C90.8773 65.625 90.5023 66.4 90.1523 67.15C89.8023 67.8833 89.4856 68.5417 89.2023 69.125C88.9356 69.7083 88.7273 70.1667 88.5773 70.5C88.3439 71.0167 88.2189 71.3917 88.2023 71.625C88.2023 71.8583 88.2439 71.9833 88.3273 72H84.8273C84.9106 72 84.9523 71.8917 84.9523 71.675C84.9523 71.4417 84.8273 71.05 84.5773 70.5C84.4606 70.2167 84.2689 69.8 84.0023 69.25C83.7356 68.7 83.4273 68.0583 83.0773 67.325C82.7439 66.575 82.3773 65.7917 81.9773 64.975C81.5773 64.1417 81.1773 63.3083 80.7773 62.475C80.3939 61.6417 80.0273 60.8667 79.6773 60.15H79.6023V70.5C79.6023 71.0333 79.6606 71.4167 79.7773 71.65C79.8939 71.8833 80.0106 72 80.1273 72H76.2773ZM99.9589 72C100.076 72 100.192 71.8833 100.309 71.65C100.426 71.4167 100.484 71.0333 100.484 70.5V58.5C100.484 57.9667 100.426 57.5917 100.309 57.375C100.192 57.1417 100.076 57.0167 99.9589 57H103.809C103.692 57 103.576 57.1167 103.459 57.35C103.342 57.5833 103.284 57.975 103.284 58.525V70.5C103.284 71.0333 103.342 71.4167 103.459 71.65C103.576 71.8833 103.692 72 103.809 72H99.9589ZM113.769 72.25C111.503 72.25 109.711 71.625 108.394 70.375C107.094 69.1083 106.444 67.1667 106.444 64.55C106.444 63.0167 106.736 61.6667 107.319 60.5C107.903 59.3167 108.828 58.4 110.094 57.75C111.361 57.0833 113.003 56.75 115.019 56.75C116.603 56.75 117.911 56.8333 118.944 57C119.994 57.1667 120.711 57.3333 121.094 57.5V58L121.594 60.25C121.144 59.9167 120.353 59.5833 119.219 59.25C118.086 58.9167 116.703 58.75 115.069 58.75C113.736 58.75 112.636 59 111.769 59.5C110.903 59.9833 110.261 60.6583 109.844 61.525C109.444 62.3917 109.244 63.4 109.244 64.55C109.244 65.75 109.428 66.775 109.794 67.625C110.178 68.475 110.778 69.125 111.594 69.575C112.411 70.0083 113.478 70.225 114.794 70.225C115.928 70.225 116.828 70.1 117.494 69.85C118.161 69.6 118.636 69.2667 118.919 68.85C119.203 68.4167 119.344 67.95 119.344 67.45V66.8C119.344 66.4167 119.311 66.2 119.244 66.15C119.194 66.0833 118.978 66.05 118.594 66.05H117.794C116.861 66.05 116.111 66.1083 115.544 66.225C114.994 66.3417 114.644 66.4583 114.494 66.575L114.744 64.6V64.1H122.619C122.503 64.1167 122.386 64.2417 122.269 64.475C122.169 64.6917 122.119 65.0667 122.119 65.6V70.5C122.119 71.0333 122.169 71.4167 122.269 71.65C122.386 71.8833 122.503 72 122.619 72H119.344V71.425L119.394 70.725L119.344 70.675C119.078 70.9583 118.728 71.225 118.294 71.475C117.861 71.7083 117.278 71.8917 116.544 72.025C115.828 72.175 114.903 72.25 113.769 72.25ZM125.374 72C125.491 72 125.607 71.8833 125.724 71.65C125.841 71.4167 125.899 71.0333 125.899 70.5V58.5C125.899 57.9667 125.841 57.5917 125.724 57.375C125.607 57.1417 125.491 57.0167 125.374 57H129.999C129.966 57 129.982 57.1167 130.049 57.35C130.116 57.5833 130.274 57.9833 130.524 58.55C130.624 58.7667 130.799 59.15 131.049 59.7C131.316 60.25 131.632 60.9083 131.999 61.675C132.366 62.425 132.757 63.2333 133.174 64.1C133.591 64.9667 134.016 65.85 134.449 66.75C134.882 67.6333 135.291 68.4667 135.674 69.25H135.699C136.099 68.45 136.516 67.6083 136.949 66.725C137.382 65.825 137.816 64.9333 138.249 64.05C138.682 63.1667 139.082 62.35 139.449 61.6C139.816 60.8333 140.124 60.1833 140.374 59.65C140.641 59.1 140.824 58.7167 140.924 58.5C141.157 57.9667 141.307 57.5833 141.374 57.35C141.457 57.1167 141.482 57 141.449 57H146.049C145.932 57 145.816 57.1167 145.699 57.35C145.582 57.5833 145.524 57.975 145.524 58.525V70.5C145.524 71.0333 145.582 71.4167 145.699 71.65C145.816 71.8833 145.932 72 146.049 72H142.224C142.341 72 142.449 71.8833 142.549 71.65C142.666 71.4167 142.724 71.0333 142.724 70.5V60.15H142.674C142.324 60.85 141.949 61.6 141.549 62.4C141.166 63.2 140.774 64.0083 140.374 64.825C139.974 65.625 139.599 66.4 139.249 67.15C138.899 67.8833 138.582 68.5417 138.299 69.125C138.032 69.7083 137.824 70.1667 137.674 70.5C137.441 71.0167 137.316 71.3917 137.299 71.625C137.299 71.8583 137.341 71.9833 137.424 72H133.924C134.007 72 134.049 71.8917 134.049 71.675C134.049 71.4417 133.924 71.05 133.674 70.5C133.557 70.2167 133.366 69.8 133.099 69.25C132.832 68.7 132.524 68.0583 132.174 67.325C131.841 66.575 131.474 65.7917 131.074 64.975C130.674 64.1417 130.274 63.3083 129.874 62.475C129.491 61.6417 129.124 60.8667 128.774 60.15H128.699V70.5C128.699 71.0333 128.757 71.4167 128.874 71.65C128.991 71.8833 129.107 72 129.224 72H125.374ZM149.056 72C149.172 72 149.289 71.8833 149.406 71.65C149.522 71.4167 149.581 71.0333 149.581 70.5V58.5C149.581 57.9667 149.522 57.5917 149.406 57.375C149.289 57.1417 149.172 57.0167 149.056 57H152.906C152.789 57 152.672 57.1167 152.556 57.35C152.439 57.5833 152.381 57.975 152.381 58.525V70.5C152.381 71.0333 152.439 71.4167 152.556 71.65C152.672 71.8833 152.789 72 152.906 72H149.056ZM162.866 72.25C160.599 72.25 158.808 71.625 157.491 70.375C156.191 69.1083 155.541 67.1667 155.541 64.55C155.541 63.0167 155.833 61.6667 156.416 60.5C156.999 59.3167 157.924 58.4 159.191 57.75C160.458 57.0833 162.099 56.75 164.116 56.75C165.699 56.75 167.008 56.8333 168.041 57C169.091 57.1667 169.808 57.3333 170.191 57.5V58L170.691 60.25C170.241 59.9167 169.449 59.5833 168.316 59.25C167.183 58.9167 165.799 58.75 164.166 58.75C162.833 58.75 161.733 59 160.866 59.5C159.999 59.9833 159.358 60.6583 158.941 61.525C158.541 62.3917 158.341 63.4 158.341 64.55C158.341 65.75 158.524 66.775 158.891 67.625C159.274 68.475 159.874 69.125 160.691 69.575C161.508 70.0083 162.574 70.225 163.891 70.225C165.024 70.225 165.924 70.1 166.591 69.85C167.258 69.6 167.733 69.2667 168.016 68.85C168.299 68.4167 168.441 67.95 168.441 67.45V66.8C168.441 66.4167 168.408 66.2 168.341 66.15C168.291 66.0833 168.074 66.05 167.691 66.05H166.891C165.958 66.05 165.208 66.1083 164.641 66.225C164.091 66.3417 163.741 66.4583 163.591 66.575L163.841 64.6V64.1H171.716C171.599 64.1167 171.483 64.2417 171.366 64.475C171.266 64.6917 171.216 65.0667 171.216 65.6V70.5C171.216 71.0333 171.266 71.4167 171.366 71.65C171.483 71.8833 171.599 72 171.716 72H168.441V71.425L168.491 70.725L168.441 70.675C168.174 70.9583 167.824 71.225 167.391 71.475C166.958 71.7083 166.374 71.8917 165.641 72.025C164.924 72.175 163.999 72.25 162.866 72.25ZM-21.9161 98C-21.7994 98 -21.6828 97.8833 -21.5661 97.65C-21.4494 97.4167 -21.3911 97.0333 -21.3911 96.5V84.5C-21.3911 83.9667 -21.4494 83.5917 -21.5661 83.375C-21.6828 83.1417 -21.7994 83.0167 -21.9161 83H-17.2911C-17.3244 83 -17.3078 83.1167 -17.2411 83.35C-17.1744 83.5833 -17.0161 83.9833 -16.7661 84.55C-16.6661 84.7667 -16.4911 85.15 -16.2411 85.7C-15.9744 86.25 -15.6578 86.9083 -15.2911 87.675C-14.9244 88.425 -14.5328 89.2333 -14.1161 90.1C-13.6994 90.9667 -13.2744 91.85 -12.8411 92.75C-12.4078 93.6333 -11.9994 94.4667 -11.6161 95.25H-11.5911C-11.1911 94.45 -10.7744 93.6083 -10.3411 92.725C-9.90777 91.825 -9.47444 90.9333 -9.04111 90.05C-8.60777 89.1667 -8.20777 88.35 -7.84111 87.6C-7.47444 86.8333 -7.16611 86.1833 -6.91611 85.65C-6.64944 85.1 -6.46611 84.7167 -6.36611 84.5C-6.13277 83.9667 -5.98277 83.5833 -5.91611 83.35C-5.83277 83.1167 -5.80777 83 -5.84111 83H-1.24111C-1.35777 83 -1.47444 83.1167 -1.59111 83.35C-1.70777 83.5833 -1.76611 83.975 -1.76611 84.525V96.5C-1.76611 97.0333 -1.70777 97.4167 -1.59111 97.65C-1.47444 97.8833 -1.35777 98 -1.24111 98H-5.06611C-4.94944 98 -4.84111 97.8833 -4.74111 97.65C-4.62444 97.4167 -4.56611 97.0333 -4.56611 96.5V86.15H-4.61611C-4.96611 86.85 -5.34111 87.6 -5.74111 88.4C-6.12444 89.2 -6.51611 90.0083 -6.91611 90.825C-7.31611 91.625 -7.69111 92.4 -8.04111 93.15C-8.39111 93.8833 -8.70777 94.5417 -8.99111 95.125C-9.25777 95.7083 -9.46611 96.1667 -9.61611 96.5C-9.84944 97.0167 -9.97444 97.3917 -9.99111 97.625C-9.99111 97.8583 -9.94944 97.9833 -9.86611 98H-13.3661C-13.2828 98 -13.2411 97.8917 -13.2411 97.675C-13.2411 97.4417 -13.3661 97.05 -13.6161 96.5C-13.7328 96.2167 -13.9244 95.8 -14.1911 95.25C-14.4578 94.7 -14.7661 94.0583 -15.1161 93.325C-15.4494 92.575 -15.8161 91.7917 -16.2161 90.975C-16.6161 90.1417 -17.0161 89.3083 -17.4161 88.475C-17.7994 87.6417 -18.1661 86.8667 -18.5161 86.15H-18.5911V96.5C-18.5911 97.0333 -18.5328 97.4167 -18.4161 97.65C-18.2994 97.8833 -18.1828 98 -18.0661 98H-21.9161ZM1.76553 98C1.8822 98 1.99887 97.8833 2.11553 97.65C2.2322 97.4167 2.29053 97.0333 2.29053 96.5V84.5C2.29053 83.9667 2.2322 83.5917 2.11553 83.375C1.99887 83.1417 1.8822 83.0167 1.76553 83H5.61553C5.49887 83 5.3822 83.1167 5.26553 83.35C5.14887 83.5833 5.09053 83.975 5.09053 84.525V96.5C5.09053 97.0333 5.14887 97.4167 5.26553 97.65C5.3822 97.8833 5.49887 98 5.61553 98H1.76553ZM15.5759 98.25C13.3092 98.25 11.5176 97.625 10.2009 96.375C8.90089 95.1083 8.25089 93.1667 8.25089 90.55C8.25089 89.0167 8.54255 87.6667 9.12589 86.5C9.70922 85.3167 10.6342 84.4 11.9009 83.75C13.1676 83.0833 14.8092 82.75 16.8259 82.75C18.4092 82.75 19.7176 82.8333 20.7509 83C21.8009 83.1667 22.5176 83.3333 22.9009 83.5V84L23.4009 86.25C22.9509 85.9167 22.1592 85.5833 21.0259 85.25C19.8926 84.9167 18.5092 84.75 16.8759 84.75C15.5426 84.75 14.4426 85 13.5759 85.5C12.7092 85.9833 12.0676 86.6583 11.6509 87.525C11.2509 88.3917 11.0509 89.4 11.0509 90.55C11.0509 91.75 11.2342 92.775 11.6009 93.625C11.9842 94.475 12.5842 95.125 13.4009 95.575C14.2176 96.0083 15.2842 96.225 16.6009 96.225C17.7342 96.225 18.6342 96.1 19.3009 95.85C19.9676 95.6 20.4426 95.2667 20.7259 94.85C21.0092 94.4167 21.1509 93.95 21.1509 93.45V92.8C21.1509 92.4167 21.1176 92.2 21.0509 92.15C21.0009 92.0833 20.7842 92.05 20.4009 92.05H19.6009C18.6676 92.05 17.9176 92.1083 17.3509 92.225C16.8009 92.3417 16.4509 92.4583 16.3009 92.575L16.5509 90.6V90.1H24.4259C24.3092 90.1167 24.1926 90.2417 24.0759 90.475C23.9759 90.6917 23.9259 91.0667 23.9259 91.6V96.5C23.9259 97.0333 23.9759 97.4167 24.0759 97.65C24.1926 97.8833 24.3092 98 24.4259 98H21.1509V97.425L21.2009 96.725L21.1509 96.675C20.8842 96.9583 20.5342 97.225 20.1009 97.475C19.6676 97.7083 19.0842 97.8917 18.3509 98.025C17.6342 98.175 16.7092 98.25 15.5759 98.25ZM27.1806 98C27.2972 98 27.4139 97.8833 27.5306 97.65C27.6472 97.4167 27.7056 97.0333 27.7056 96.5V84.5C27.7056 83.9667 27.6472 83.5917 27.5306 83.375C27.4139 83.1417 27.2972 83.0167 27.1806 83H31.8056C31.7722 83 31.7889 83.1167 31.8556 83.35C31.9222 83.5833 32.0806 83.9833 32.3306 84.55C32.4306 84.7667 32.6056 85.15 32.8556 85.7C33.1222 86.25 33.4389 86.9083 33.8056 87.675C34.1722 88.425 34.5639 89.2333 34.9806 90.1C35.3972 90.9667 35.8222 91.85 36.2556 92.75C36.6889 93.6333 37.0972 94.4667 37.4806 95.25H37.5056C37.9056 94.45 38.3222 93.6083 38.7556 92.725C39.1889 91.825 39.6222 90.9333 40.0556 90.05C40.4889 89.1667 40.8889 88.35 41.2556 87.6C41.6222 86.8333 41.9306 86.1833 42.1806 85.65C42.4472 85.1 42.6306 84.7167 42.7306 84.5C42.9639 83.9667 43.1139 83.5833 43.1806 83.35C43.2639 83.1167 43.2889 83 43.2556 83H47.8556C47.7389 83 47.6222 83.1167 47.5056 83.35C47.3889 83.5833 47.3306 83.975 47.3306 84.525V96.5C47.3306 97.0333 47.3889 97.4167 47.5056 97.65C47.6222 97.8833 47.7389 98 47.8556 98H44.0306C44.1472 98 44.2556 97.8833 44.3556 97.65C44.4722 97.4167 44.5306 97.0333 44.5306 96.5V86.15H44.4806C44.1306 86.85 43.7556 87.6 43.3556 88.4C42.9722 89.2 42.5806 90.0083 42.1806 90.825C41.7806 91.625 41.4056 92.4 41.0556 93.15C40.7056 93.8833 40.3889 94.5417 40.1056 95.125C39.8389 95.7083 39.6306 96.1667 39.4806 96.5C39.2472 97.0167 39.1222 97.3917 39.1056 97.625C39.1056 97.8583 39.1472 97.9833 39.2306 98H35.7306C35.8139 98 35.8556 97.8917 35.8556 97.675C35.8556 97.4417 35.7306 97.05 35.4806 96.5C35.3639 96.2167 35.1722 95.8 34.9056 95.25C34.6389 94.7 34.3306 94.0583 33.9806 93.325C33.6472 92.575 33.2806 91.7917 32.8806 90.975C32.4806 90.1417 32.0806 89.3083 31.6806 88.475C31.2972 87.6417 30.9306 86.8667 30.5806 86.15H30.5056V96.5C30.5056 97.0333 30.5639 97.4167 30.6806 97.65C30.7972 97.8833 30.9139 98 31.0306 98H27.1806ZM50.8622 98C50.9789 98 51.0955 97.8833 51.2122 97.65C51.3289 97.4167 51.3872 97.0333 51.3872 96.5V84.5C51.3872 83.9667 51.3289 83.5917 51.2122 83.375C51.0955 83.1417 50.9789 83.0167 50.8622 83H54.7122C54.5955 83 54.4789 83.1167 54.3622 83.35C54.2455 83.5833 54.1872 83.975 54.1872 84.525V96.5C54.1872 97.0333 54.2455 97.4167 54.3622 97.65C54.4789 97.8833 54.5955 98 54.7122 98H50.8622ZM64.6726 98.25C62.4059 98.25 60.6142 97.625 59.2976 96.375C57.9976 95.1083 57.3476 93.1667 57.3476 90.55C57.3476 89.0167 57.6392 87.6667 58.2226 86.5C58.8059 85.3167 59.7309 84.4 60.9976 83.75C62.2642 83.0833 63.9059 82.75 65.9226 82.75C67.5059 82.75 68.8142 82.8333 69.8476 83C70.8976 83.1667 71.6142 83.3333 71.9976 83.5V84L72.4976 86.25C72.0476 85.9167 71.2559 85.5833 70.1226 85.25C68.9892 84.9167 67.6059 84.75 65.9726 84.75C64.6392 84.75 63.5392 85 62.6726 85.5C61.8059 85.9833 61.1642 86.6583 60.7476 87.525C60.3476 88.3917 60.1476 89.4 60.1476 90.55C60.1476 91.75 60.3309 92.775 60.6976 93.625C61.0809 94.475 61.6809 95.125 62.4976 95.575C63.3142 96.0083 64.3809 96.225 65.6976 96.225C66.8309 96.225 67.7309 96.1 68.3976 95.85C69.0642 95.6 69.5392 95.2667 69.8226 94.85C70.1059 94.4167 70.2476 93.95 70.2476 93.45V92.8C70.2476 92.4167 70.2142 92.2 70.1476 92.15C70.0976 92.0833 69.8809 92.05 69.4976 92.05H68.6976C67.7642 92.05 67.0142 92.1083 66.4476 92.225C65.8976 92.3417 65.5476 92.4583 65.3976 92.575L65.6476 90.6V90.1H73.5226C73.4059 90.1167 73.2892 90.2417 73.1726 90.475C73.0726 90.6917 73.0226 91.0667 73.0226 91.6V96.5C73.0226 97.0333 73.0726 97.4167 73.1726 97.65C73.2892 97.8833 73.4059 98 73.5226 98H70.2476V97.425L70.2976 96.725L70.2476 96.675C69.9809 96.9583 69.6309 97.225 69.1976 97.475C68.7642 97.7083 68.1809 97.8917 67.4476 98.025C66.7309 98.175 65.8059 98.25 64.6726 98.25ZM76.2773 98C76.3939 98 76.5106 97.8833 76.6273 97.65C76.7439 97.4167 76.8023 97.0333 76.8023 96.5V84.5C76.8023 83.9667 76.7439 83.5917 76.6273 83.375C76.5106 83.1417 76.3939 83.0167 76.2773 83H80.9023C80.8689 83 80.8856 83.1167 80.9523 83.35C81.0189 83.5833 81.1773 83.9833 81.4273 84.55C81.5273 84.7667 81.7023 85.15 81.9523 85.7C82.2189 86.25 82.5356 86.9083 82.9023 87.675C83.2689 88.425 83.6606 89.2333 84.0773 90.1C84.4939 90.9667 84.9189 91.85 85.3523 92.75C85.7856 93.6333 86.1939 94.4667 86.5773 95.25H86.6023C87.0023 94.45 87.4189 93.6083 87.8523 92.725C88.2856 91.825 88.7189 90.9333 89.1523 90.05C89.5856 89.1667 89.9856 88.35 90.3523 87.6C90.7189 86.8333 91.0273 86.1833 91.2773 85.65C91.5439 85.1 91.7273 84.7167 91.8273 84.5C92.0606 83.9667 92.2106 83.5833 92.2773 83.35C92.3606 83.1167 92.3856 83 92.3523 83H96.9523C96.8356 83 96.7189 83.1167 96.6023 83.35C96.4856 83.5833 96.4273 83.975 96.4273 84.525V96.5C96.4273 97.0333 96.4856 97.4167 96.6023 97.65C96.7189 97.8833 96.8356 98 96.9523 98H93.1273C93.2439 98 93.3523 97.8833 93.4523 97.65C93.5689 97.4167 93.6273 97.0333 93.6273 96.5V86.15H93.5773C93.2273 86.85 92.8523 87.6 92.4523 88.4C92.0689 89.2 91.6773 90.0083 91.2773 90.825C90.8773 91.625 90.5023 92.4 90.1523 93.15C89.8023 93.8833 89.4856 94.5417 89.2023 95.125C88.9356 95.7083 88.7273 96.1667 88.5773 96.5C88.3439 97.0167 88.2189 97.3917 88.2023 97.625C88.2023 97.8583 88.2439 97.9833 88.3273 98H84.8273C84.9106 98 84.9523 97.8917 84.9523 97.675C84.9523 97.4417 84.8273 97.05 84.5773 96.5C84.4606 96.2167 84.2689 95.8 84.0023 95.25C83.7356 94.7 83.4273 94.0583 83.0773 93.325C82.7439 92.575 82.3773 91.7917 81.9773 90.975C81.5773 90.1417 81.1773 89.3083 80.7773 88.475C80.3939 87.6417 80.0273 86.8667 79.6773 86.15H79.6023V96.5C79.6023 97.0333 79.6606 97.4167 79.7773 97.65C79.8939 97.8833 80.0106 98 80.1273 98H76.2773ZM99.9589 98C100.076 98 100.192 97.8833 100.309 97.65C100.426 97.4167 100.484 97.0333 100.484 96.5V84.5C100.484 83.9667 100.426 83.5917 100.309 83.375C100.192 83.1417 100.076 83.0167 99.9589 83H103.809C103.692 83 103.576 83.1167 103.459 83.35C103.342 83.5833 103.284 83.975 103.284 84.525V96.5C103.284 97.0333 103.342 97.4167 103.459 97.65C103.576 97.8833 103.692 98 103.809 98H99.9589ZM113.769 98.25C111.503 98.25 109.711 97.625 108.394 96.375C107.094 95.1083 106.444 93.1667 106.444 90.55C106.444 89.0167 106.736 87.6667 107.319 86.5C107.903 85.3167 108.828 84.4 110.094 83.75C111.361 83.0833 113.003 82.75 115.019 82.75C116.603 82.75 117.911 82.8333 118.944 83C119.994 83.1667 120.711 83.3333 121.094 83.5V84L121.594 86.25C121.144 85.9167 120.353 85.5833 119.219 85.25C118.086 84.9167 116.703 84.75 115.069 84.75C113.736 84.75 112.636 85 111.769 85.5C110.903 85.9833 110.261 86.6583 109.844 87.525C109.444 88.3917 109.244 89.4 109.244 90.55C109.244 91.75 109.428 92.775 109.794 93.625C110.178 94.475 110.778 95.125 111.594 95.575C112.411 96.0083 113.478 96.225 114.794 96.225C115.928 96.225 116.828 96.1 117.494 95.85C118.161 95.6 118.636 95.2667 118.919 94.85C119.203 94.4167 119.344 93.95 119.344 93.45V92.8C119.344 92.4167 119.311 92.2 119.244 92.15C119.194 92.0833 118.978 92.05 118.594 92.05H117.794C116.861 92.05 116.111 92.1083 115.544 92.225C114.994 92.3417 114.644 92.4583 114.494 92.575L114.744 90.6V90.1H122.619C122.503 90.1167 122.386 90.2417 122.269 90.475C122.169 90.6917 122.119 91.0667 122.119 91.6V96.5C122.119 97.0333 122.169 97.4167 122.269 97.65C122.386 97.8833 122.503 98 122.619 98H119.344V97.425L119.394 96.725L119.344 96.675C119.078 96.9583 118.728 97.225 118.294 97.475C117.861 97.7083 117.278 97.8917 116.544 98.025C115.828 98.175 114.903 98.25 113.769 98.25ZM125.374 98C125.491 98 125.607 97.8833 125.724 97.65C125.841 97.4167 125.899 97.0333 125.899 96.5V84.5C125.899 83.9667 125.841 83.5917 125.724 83.375C125.607 83.1417 125.491 83.0167 125.374 83H129.999C129.966 83 129.982 83.1167 130.049 83.35C130.116 83.5833 130.274 83.9833 130.524 84.55C130.624 84.7667 130.799 85.15 131.049 85.7C131.316 86.25 131.632 86.9083 131.999 87.675C132.366 88.425 132.757 89.2333 133.174 90.1C133.591 90.9667 134.016 91.85 134.449 92.75C134.882 93.6333 135.291 94.4667 135.674 95.25H135.699C136.099 94.45 136.516 93.6083 136.949 92.725C137.382 91.825 137.816 90.9333 138.249 90.05C138.682 89.1667 139.082 88.35 139.449 87.6C139.816 86.8333 140.124 86.1833 140.374 85.65C140.641 85.1 140.824 84.7167 140.924 84.5C141.157 83.9667 141.307 83.5833 141.374 83.35C141.457 83.1167 141.482 83 141.449 83H146.049C145.932 83 145.816 83.1167 145.699 83.35C145.582 83.5833 145.524 83.975 145.524 84.525V96.5C145.524 97.0333 145.582 97.4167 145.699 97.65C145.816 97.8833 145.932 98 146.049 98H142.224C142.341 98 142.449 97.8833 142.549 97.65C142.666 97.4167 142.724 97.0333 142.724 96.5V86.15H142.674C142.324 86.85 141.949 87.6 141.549 88.4C141.166 89.2 140.774 90.0083 140.374 90.825C139.974 91.625 139.599 92.4 139.249 93.15C138.899 93.8833 138.582 94.5417 138.299 95.125C138.032 95.7083 137.824 96.1667 137.674 96.5C137.441 97.0167 137.316 97.3917 137.299 97.625C137.299 97.8583 137.341 97.9833 137.424 98H133.924C134.007 98 134.049 97.8917 134.049 97.675C134.049 97.4417 133.924 97.05 133.674 96.5C133.557 96.2167 133.366 95.8 133.099 95.25C132.832 94.7 132.524 94.0583 132.174 93.325C131.841 92.575 131.474 91.7917 131.074 90.975C130.674 90.1417 130.274 89.3083 129.874 88.475C129.491 87.6417 129.124 86.8667 128.774 86.15H128.699V96.5C128.699 97.0333 128.757 97.4167 128.874 97.65C128.991 97.8833 129.107 98 129.224 98H125.374ZM149.056 98C149.172 98 149.289 97.8833 149.406 97.65C149.522 97.4167 149.581 97.0333 149.581 96.5V84.5C149.581 83.9667 149.522 83.5917 149.406 83.375C149.289 83.1417 149.172 83.0167 149.056 83H152.906C152.789 83 152.672 83.1167 152.556 83.35C152.439 83.5833 152.381 83.975 152.381 84.525V96.5C152.381 97.0333 152.439 97.4167 152.556 97.65C152.672 97.8833 152.789 98 152.906 98H149.056ZM162.866 98.25C160.599 98.25 158.808 97.625 157.491 96.375C156.191 95.1083 155.541 93.1667 155.541 90.55C155.541 89.0167 155.833 87.6667 156.416 86.5C156.999 85.3167 157.924 84.4 159.191 83.75C160.458 83.0833 162.099 82.75 164.116 82.75C165.699 82.75 167.008 82.8333 168.041 83C169.091 83.1667 169.808 83.3333 170.191 83.5V84L170.691 86.25C170.241 85.9167 169.449 85.5833 168.316 85.25C167.183 84.9167 165.799 84.75 164.166 84.75C162.833 84.75 161.733 85 160.866 85.5C159.999 85.9833 159.358 86.6583 158.941 87.525C158.541 88.3917 158.341 89.4 158.341 90.55C158.341 91.75 158.524 92.775 158.891 93.625C159.274 94.475 159.874 95.125 160.691 95.575C161.508 96.0083 162.574 96.225 163.891 96.225C165.024 96.225 165.924 96.1 166.591 95.85C167.258 95.6 167.733 95.2667 168.016 94.85C168.299 94.4167 168.441 93.95 168.441 93.45V92.8C168.441 92.4167 168.408 92.2 168.341 92.15C168.291 92.0833 168.074 92.05 167.691 92.05H166.891C165.958 92.05 165.208 92.1083 164.641 92.225C164.091 92.3417 163.741 92.4583 163.591 92.575L163.841 90.6V90.1H171.716C171.599 90.1167 171.483 90.2417 171.366 90.475C171.266 90.6917 171.216 91.0667 171.216 91.6V96.5C171.216 97.0333 171.266 97.4167 171.366 97.65C171.483 97.8833 171.599 98 171.716 98H168.441V97.425L168.491 96.725L168.441 96.675C168.174 96.9583 167.824 97.225 167.391 97.475C166.958 97.7083 166.374 97.8917 165.641 98.025C164.924 98.175 163.999 98.25 162.866 98.25ZM-21.9161 124C-21.7994 124 -21.6828 123.883 -21.5661 123.65C-21.4494 123.417 -21.3911 123.033 -21.3911 122.5V110.5C-21.3911 109.967 -21.4494 109.592 -21.5661 109.375C-21.6828 109.142 -21.7994 109.017 -21.9161 109H-17.2911C-17.3244 109 -17.3078 109.117 -17.2411 109.35C-17.1744 109.583 -17.0161 109.983 -16.7661 110.55C-16.6661 110.767 -16.4911 111.15 -16.2411 111.7C-15.9744 112.25 -15.6578 112.908 -15.2911 113.675C-14.9244 114.425 -14.5328 115.233 -14.1161 116.1C-13.6994 116.967 -13.2744 117.85 -12.8411 118.75C-12.4078 119.633 -11.9994 120.467 -11.6161 121.25H-11.5911C-11.1911 120.45 -10.7744 119.608 -10.3411 118.725C-9.90777 117.825 -9.47444 116.933 -9.04111 116.05C-8.60777 115.167 -8.20777 114.35 -7.84111 113.6C-7.47444 112.833 -7.16611 112.183 -6.91611 111.65C-6.64944 111.1 -6.46611 110.717 -6.36611 110.5C-6.13277 109.967 -5.98277 109.583 -5.91611 109.35C-5.83277 109.117 -5.80777 109 -5.84111 109H-1.24111C-1.35777 109 -1.47444 109.117 -1.59111 109.35C-1.70777 109.583 -1.76611 109.975 -1.76611 110.525V122.5C-1.76611 123.033 -1.70777 123.417 -1.59111 123.65C-1.47444 123.883 -1.35777 124 -1.24111 124H-5.06611C-4.94944 124 -4.84111 123.883 -4.74111 123.65C-4.62444 123.417 -4.56611 123.033 -4.56611 122.5V112.15H-4.61611C-4.96611 112.85 -5.34111 113.6 -5.74111 114.4C-6.12444 115.2 -6.51611 116.008 -6.91611 116.825C-7.31611 117.625 -7.69111 118.4 -8.04111 119.15C-8.39111 119.883 -8.70777 120.542 -8.99111 121.125C-9.25777 121.708 -9.46611 122.167 -9.61611 122.5C-9.84944 123.017 -9.97444 123.392 -9.99111 123.625C-9.99111 123.858 -9.94944 123.983 -9.86611 124H-13.3661C-13.2828 124 -13.2411 123.892 -13.2411 123.675C-13.2411 123.442 -13.3661 123.05 -13.6161 122.5C-13.7328 122.217 -13.9244 121.8 -14.1911 121.25C-14.4578 120.7 -14.7661 120.058 -15.1161 119.325C-15.4494 118.575 -15.8161 117.792 -16.2161 116.975C-16.6161 116.142 -17.0161 115.308 -17.4161 114.475C-17.7994 113.642 -18.1661 112.867 -18.5161 112.15H-18.5911V122.5C-18.5911 123.033 -18.5328 123.417 -18.4161 123.65C-18.2994 123.883 -18.1828 124 -18.0661 124H-21.9161ZM1.76553 124C1.8822 124 1.99887 123.883 2.11553 123.65C2.2322 123.417 2.29053 123.033 2.29053 122.5V110.5C2.29053 109.967 2.2322 109.592 2.11553 109.375C1.99887 109.142 1.8822 109.017 1.76553 109H5.61553C5.49887 109 5.3822 109.117 5.26553 109.35C5.14887 109.583 5.09053 109.975 5.09053 110.525V122.5C5.09053 123.033 5.14887 123.417 5.26553 123.65C5.3822 123.883 5.49887 124 5.61553 124H1.76553ZM15.5759 124.25C13.3092 124.25 11.5176 123.625 10.2009 122.375C8.90089 121.108 8.25089 119.167 8.25089 116.55C8.25089 115.017 8.54255 113.667 9.12589 112.5C9.70922 111.317 10.6342 110.4 11.9009 109.75C13.1676 109.083 14.8092 108.75 16.8259 108.75C18.4092 108.75 19.7176 108.833 20.7509 109C21.8009 109.167 22.5176 109.333 22.9009 109.5V110L23.4009 112.25C22.9509 111.917 22.1592 111.583 21.0259 111.25C19.8926 110.917 18.5092 110.75 16.8759 110.75C15.5426 110.75 14.4426 111 13.5759 111.5C12.7092 111.983 12.0676 112.658 11.6509 113.525C11.2509 114.392 11.0509 115.4 11.0509 116.55C11.0509 117.75 11.2342 118.775 11.6009 119.625C11.9842 120.475 12.5842 121.125 13.4009 121.575C14.2176 122.008 15.2842 122.225 16.6009 122.225C17.7342 122.225 18.6342 122.1 19.3009 121.85C19.9676 121.6 20.4426 121.267 20.7259 120.85C21.0092 120.417 21.1509 119.95 21.1509 119.45V118.8C21.1509 118.417 21.1176 118.2 21.0509 118.15C21.0009 118.083 20.7842 118.05 20.4009 118.05H19.6009C18.6676 118.05 17.9176 118.108 17.3509 118.225C16.8009 118.342 16.4509 118.458 16.3009 118.575L16.5509 116.6V116.1H24.4259C24.3092 116.117 24.1926 116.242 24.0759 116.475C23.9759 116.692 23.9259 117.067 23.9259 117.6V122.5C23.9259 123.033 23.9759 123.417 24.0759 123.65C24.1926 123.883 24.3092 124 24.4259 124H21.1509V123.425L21.2009 122.725L21.1509 122.675C20.8842 122.958 20.5342 123.225 20.1009 123.475C19.6676 123.708 19.0842 123.892 18.3509 124.025C17.6342 124.175 16.7092 124.25 15.5759 124.25ZM27.1806 124C27.2972 124 27.4139 123.883 27.5306 123.65C27.6472 123.417 27.7056 123.033 27.7056 122.5V110.5C27.7056 109.967 27.6472 109.592 27.5306 109.375C27.4139 109.142 27.2972 109.017 27.1806 109H31.8056C31.7722 109 31.7889 109.117 31.8556 109.35C31.9222 109.583 32.0806 109.983 32.3306 110.55C32.4306 110.767 32.6056 111.15 32.8556 111.7C33.1222 112.25 33.4389 112.908 33.8056 113.675C34.1722 114.425 34.5639 115.233 34.9806 116.1C35.3972 116.967 35.8222 117.85 36.2556 118.75C36.6889 119.633 37.0972 120.467 37.4806 121.25H37.5056C37.9056 120.45 38.3222 119.608 38.7556 118.725C39.1889 117.825 39.6222 116.933 40.0556 116.05C40.4889 115.167 40.8889 114.35 41.2556 113.6C41.6222 112.833 41.9306 112.183 42.1806 111.65C42.4472 111.1 42.6306 110.717 42.7306 110.5C42.9639 109.967 43.1139 109.583 43.1806 109.35C43.2639 109.117 43.2889 109 43.2556 109H47.8556C47.7389 109 47.6222 109.117 47.5056 109.35C47.3889 109.583 47.3306 109.975 47.3306 110.525V122.5C47.3306 123.033 47.3889 123.417 47.5056 123.65C47.6222 123.883 47.7389 124 47.8556 124H44.0306C44.1472 124 44.2556 123.883 44.3556 123.65C44.4722 123.417 44.5306 123.033 44.5306 122.5V112.15H44.4806C44.1306 112.85 43.7556 113.6 43.3556 114.4C42.9722 115.2 42.5806 116.008 42.1806 116.825C41.7806 117.625 41.4056 118.4 41.0556 119.15C40.7056 119.883 40.3889 120.542 40.1056 121.125C39.8389 121.708 39.6306 122.167 39.4806 122.5C39.2472 123.017 39.1222 123.392 39.1056 123.625C39.1056 123.858 39.1472 123.983 39.2306 124H35.7306C35.8139 124 35.8556 123.892 35.8556 123.675C35.8556 123.442 35.7306 123.05 35.4806 122.5C35.3639 122.217 35.1722 121.8 34.9056 121.25C34.6389 120.7 34.3306 120.058 33.9806 119.325C33.6472 118.575 33.2806 117.792 32.8806 116.975C32.4806 116.142 32.0806 115.308 31.6806 114.475C31.2972 113.642 30.9306 112.867 30.5806 112.15H30.5056V122.5C30.5056 123.033 30.5639 123.417 30.6806 123.65C30.7972 123.883 30.9139 124 31.0306 124H27.1806ZM50.8622 124C50.9789 124 51.0955 123.883 51.2122 123.65C51.3289 123.417 51.3872 123.033 51.3872 122.5V110.5C51.3872 109.967 51.3289 109.592 51.2122 109.375C51.0955 109.142 50.9789 109.017 50.8622 109H54.7122C54.5955 109 54.4789 109.117 54.3622 109.35C54.2455 109.583 54.1872 109.975 54.1872 110.525V122.5C54.1872 123.033 54.2455 123.417 54.3622 123.65C54.4789 123.883 54.5955 124 54.7122 124H50.8622ZM64.6726 124.25C62.4059 124.25 60.6142 123.625 59.2976 122.375C57.9976 121.108 57.3476 119.167 57.3476 116.55C57.3476 115.017 57.6392 113.667 58.2226 112.5C58.8059 111.317 59.7309 110.4 60.9976 109.75C62.2642 109.083 63.9059 108.75 65.9226 108.75C67.5059 108.75 68.8142 108.833 69.8476 109C70.8976 109.167 71.6142 109.333 71.9976 109.5V110L72.4976 112.25C72.0476 111.917 71.2559 111.583 70.1226 111.25C68.9892 110.917 67.6059 110.75 65.9726 110.75C64.6392 110.75 63.5392 111 62.6726 111.5C61.8059 111.983 61.1642 112.658 60.7476 113.525C60.3476 114.392 60.1476 115.4 60.1476 116.55C60.1476 117.75 60.3309 118.775 60.6976 119.625C61.0809 120.475 61.6809 121.125 62.4976 121.575C63.3142 122.008 64.3809 122.225 65.6976 122.225C66.8309 122.225 67.7309 122.1 68.3976 121.85C69.0642 121.6 69.5392 121.267 69.8226 120.85C70.1059 120.417 70.2476 119.95 70.2476 119.45V118.8C70.2476 118.417 70.2142 118.2 70.1476 118.15C70.0976 118.083 69.8809 118.05 69.4976 118.05H68.6976C67.7642 118.05 67.0142 118.108 66.4476 118.225C65.8976 118.342 65.5476 118.458 65.3976 118.575L65.6476 116.6V116.1H73.5226C73.4059 116.117 73.2892 116.242 73.1726 116.475C73.0726 116.692 73.0226 117.067 73.0226 117.6V122.5C73.0226 123.033 73.0726 123.417 73.1726 123.65C73.2892 123.883 73.4059 124 73.5226 124H70.2476V123.425L70.2976 122.725L70.2476 122.675C69.9809 122.958 69.6309 123.225 69.1976 123.475C68.7642 123.708 68.1809 123.892 67.4476 124.025C66.7309 124.175 65.8059 124.25 64.6726 124.25ZM76.2773 124C76.3939 124 76.5106 123.883 76.6273 123.65C76.7439 123.417 76.8023 123.033 76.8023 122.5V110.5C76.8023 109.967 76.7439 109.592 76.6273 109.375C76.5106 109.142 76.3939 109.017 76.2773 109H80.9023C80.8689 109 80.8856 109.117 80.9523 109.35C81.0189 109.583 81.1773 109.983 81.4273 110.55C81.5273 110.767 81.7023 111.15 81.9523 111.7C82.2189 112.25 82.5356 112.908 82.9023 113.675C83.2689 114.425 83.6606 115.233 84.0773 116.1C84.4939 116.967 84.9189 117.85 85.3523 118.75C85.7856 119.633 86.1939 120.467 86.5773 121.25H86.6023C87.0023 120.45 87.4189 119.608 87.8523 118.725C88.2856 117.825 88.7189 116.933 89.1523 116.05C89.5856 115.167 89.9856 114.35 90.3523 113.6C90.7189 112.833 91.0273 112.183 91.2773 111.65C91.5439 111.1 91.7273 110.717 91.8273 110.5C92.0606 109.967 92.2106 109.583 92.2773 109.35C92.3606 109.117 92.3856 109 92.3523 109H96.9523C96.8356 109 96.7189 109.117 96.6023 109.35C96.4856 109.583 96.4273 109.975 96.4273 110.525V122.5C96.4273 123.033 96.4856 123.417 96.6023 123.65C96.7189 123.883 96.8356 124 96.9523 124H93.1273C93.2439 124 93.3523 123.883 93.4523 123.65C93.5689 123.417 93.6273 123.033 93.6273 122.5V112.15H93.5773C93.2273 112.85 92.8523 113.6 92.4523 114.4C92.0689 115.2 91.6773 116.008 91.2773 116.825C90.8773 117.625 90.5023 118.4 90.1523 119.15C89.8023 119.883 89.4856 120.542 89.2023 121.125C88.9356 121.708 88.7273 122.167 88.5773 122.5C88.3439 123.017 88.2189 123.392 88.2023 123.625C88.2023 123.858 88.2439 123.983 88.3273 124H84.8273C84.9106 124 84.9523 123.892 84.9523 123.675C84.9523 123.442 84.8273 123.05 84.5773 122.5C84.4606 122.217 84.2689 121.8 84.0023 121.25C83.7356 120.7 83.4273 120.058 83.0773 119.325C82.7439 118.575 82.3773 117.792 81.9773 116.975C81.5773 116.142 81.1773 115.308 80.7773 114.475C80.3939 113.642 80.0273 112.867 79.6773 112.15H79.6023V122.5C79.6023 123.033 79.6606 123.417 79.7773 123.65C79.8939 123.883 80.0106 124 80.1273 124H76.2773ZM99.9589 124C100.076 124 100.192 123.883 100.309 123.65C100.426 123.417 100.484 123.033 100.484 122.5V110.5C100.484 109.967 100.426 109.592 100.309 109.375C100.192 109.142 100.076 109.017 99.9589 109H103.809C103.692 109 103.576 109.117 103.459 109.35C103.342 109.583 103.284 109.975 103.284 110.525V122.5C103.284 123.033 103.342 123.417 103.459 123.65C103.576 123.883 103.692 124 103.809 124H99.9589ZM113.769 124.25C111.503 124.25 109.711 123.625 108.394 122.375C107.094 121.108 106.444 119.167 106.444 116.55C106.444 115.017 106.736 113.667 107.319 112.5C107.903 111.317 108.828 110.4 110.094 109.75C111.361 109.083 113.003 108.75 115.019 108.75C116.603 108.75 117.911 108.833 118.944 109C119.994 109.167 120.711 109.333 121.094 109.5V110L121.594 112.25C121.144 111.917 120.353 111.583 119.219 111.25C118.086 110.917 116.703 110.75 115.069 110.75C113.736 110.75 112.636 111 111.769 111.5C110.903 111.983 110.261 112.658 109.844 113.525C109.444 114.392 109.244 115.4 109.244 116.55C109.244 117.75 109.428 118.775 109.794 119.625C110.178 120.475 110.778 121.125 111.594 121.575C112.411 122.008 113.478 122.225 114.794 122.225C115.928 122.225 116.828 122.1 117.494 121.85C118.161 121.6 118.636 121.267 118.919 120.85C119.203 120.417 119.344 119.95 119.344 119.45V118.8C119.344 118.417 119.311 118.2 119.244 118.15C119.194 118.083 118.978 118.05 118.594 118.05H117.794C116.861 118.05 116.111 118.108 115.544 118.225C114.994 118.342 114.644 118.458 114.494 118.575L114.744 116.6V116.1H122.619C122.503 116.117 122.386 116.242 122.269 116.475C122.169 116.692 122.119 117.067 122.119 117.6V122.5C122.119 123.033 122.169 123.417 122.269 123.65C122.386 123.883 122.503 124 122.619 124H119.344V123.425L119.394 122.725L119.344 122.675C119.078 122.958 118.728 123.225 118.294 123.475C117.861 123.708 117.278 123.892 116.544 124.025C115.828 124.175 114.903 124.25 113.769 124.25ZM125.374 124C125.491 124 125.607 123.883 125.724 123.65C125.841 123.417 125.899 123.033 125.899 122.5V110.5C125.899 109.967 125.841 109.592 125.724 109.375C125.607 109.142 125.491 109.017 125.374 109H129.999C129.966 109 129.982 109.117 130.049 109.35C130.116 109.583 130.274 109.983 130.524 110.55C130.624 110.767 130.799 111.15 131.049 111.7C131.316 112.25 131.632 112.908 131.999 113.675C132.366 114.425 132.757 115.233 133.174 116.1C133.591 116.967 134.016 117.85 134.449 118.75C134.882 119.633 135.291 120.467 135.674 121.25H135.699C136.099 120.45 136.516 119.608 136.949 118.725C137.382 117.825 137.816 116.933 138.249 116.05C138.682 115.167 139.082 114.35 139.449 113.6C139.816 112.833 140.124 112.183 140.374 111.65C140.641 111.1 140.824 110.717 140.924 110.5C141.157 109.967 141.307 109.583 141.374 109.35C141.457 109.117 141.482 109 141.449 109H146.049C145.932 109 145.816 109.117 145.699 109.35C145.582 109.583 145.524 109.975 145.524 110.525V122.5C145.524 123.033 145.582 123.417 145.699 123.65C145.816 123.883 145.932 124 146.049 124H142.224C142.341 124 142.449 123.883 142.549 123.65C142.666 123.417 142.724 123.033 142.724 122.5V112.15H142.674C142.324 112.85 141.949 113.6 141.549 114.4C141.166 115.2 140.774 116.008 140.374 116.825C139.974 117.625 139.599 118.4 139.249 119.15C138.899 119.883 138.582 120.542 138.299 121.125C138.032 121.708 137.824 122.167 137.674 122.5C137.441 123.017 137.316 123.392 137.299 123.625C137.299 123.858 137.341 123.983 137.424 124H133.924C134.007 124 134.049 123.892 134.049 123.675C134.049 123.442 133.924 123.05 133.674 122.5C133.557 122.217 133.366 121.8 133.099 121.25C132.832 120.7 132.524 120.058 132.174 119.325C131.841 118.575 131.474 117.792 131.074 116.975C130.674 116.142 130.274 115.308 129.874 114.475C129.491 113.642 129.124 112.867 128.774 112.15H128.699V122.5C128.699 123.033 128.757 123.417 128.874 123.65C128.991 123.883 129.107 124 129.224 124H125.374ZM149.056 124C149.172 124 149.289 123.883 149.406 123.65C149.522 123.417 149.581 123.033 149.581 122.5V110.5C149.581 109.967 149.522 109.592 149.406 109.375C149.289 109.142 149.172 109.017 149.056 109H152.906C152.789 109 152.672 109.117 152.556 109.35C152.439 109.583 152.381 109.975 152.381 110.525V122.5C152.381 123.033 152.439 123.417 152.556 123.65C152.672 123.883 152.789 124 152.906 124H149.056ZM162.866 124.25C160.599 124.25 158.808 123.625 157.491 122.375C156.191 121.108 155.541 119.167 155.541 116.55C155.541 115.017 155.833 113.667 156.416 112.5C156.999 111.317 157.924 110.4 159.191 109.75C160.458 109.083 162.099 108.75 164.116 108.75C165.699 108.75 167.008 108.833 168.041 109C169.091 109.167 169.808 109.333 170.191 109.5V110L170.691 112.25C170.241 111.917 169.449 111.583 168.316 111.25C167.183 110.917 165.799 110.75 164.166 110.75C162.833 110.75 161.733 111 160.866 111.5C159.999 111.983 159.358 112.658 158.941 113.525C158.541 114.392 158.341 115.4 158.341 116.55C158.341 117.75 158.524 118.775 158.891 119.625C159.274 120.475 159.874 121.125 160.691 121.575C161.508 122.008 162.574 122.225 163.891 122.225C165.024 122.225 165.924 122.1 166.591 121.85C167.258 121.6 167.733 121.267 168.016 120.85C168.299 120.417 168.441 119.95 168.441 119.45V118.8C168.441 118.417 168.408 118.2 168.341 118.15C168.291 118.083 168.074 118.05 167.691 118.05H166.891C165.958 118.05 165.208 118.108 164.641 118.225C164.091 118.342 163.741 118.458 163.591 118.575L163.841 116.6V116.1H171.716C171.599 116.117 171.483 116.242 171.366 116.475C171.266 116.692 171.216 117.067 171.216 117.6V122.5C171.216 123.033 171.266 123.417 171.366 123.65C171.483 123.883 171.599 124 171.716 124H168.441V123.425L168.491 122.725L168.441 122.675C168.174 122.958 167.824 123.225 167.391 123.475C166.958 123.708 166.374 123.892 165.641 124.025C164.924 124.175 163.999 124.25 162.866 124.25Z" fill="#FEF070"/>
<path d="M68.5859 85.6256V117.966H58.6389V106.745L58.7859 95.8666H58.6389L52.3669 117.966H43.2529L37.0789 95.8666H36.8829L37.0299 106.745V117.966H27.0339V85.6256H43.0079L46.7319 99.9826L48.1529 106.01H48.2509L49.6719 99.9826L53.3959 85.6256H68.5859ZM84.9148 85.6256V117.966H73.4978V85.6256H84.9148ZM103.437 118.456C100.66 118.456 98.1615 117.851 95.9401 116.643C93.7188 115.401 91.9711 113.556 90.6971 111.106C89.4231 108.623 88.7861 105.552 88.7861 101.894C88.7861 98.3656 89.4395 95.3602 90.7461 92.8776C92.0855 90.3622 94.0128 88.4512 96.5281 87.1446C99.0435 85.8052 102.049 85.1356 105.544 85.1356C109.529 85.1356 112.714 85.8379 115.099 87.2426C117.516 88.6472 119.362 90.9012 120.636 94.0046L110.003 97.8266C109.774 96.2912 109.268 95.2296 108.484 94.6416C107.733 94.0209 106.785 93.7106 105.642 93.7106C104.401 93.7106 103.388 94.0046 102.604 94.5926C101.853 95.1806 101.297 96.0789 100.938 97.2876C100.611 98.4636 100.448 99.9662 100.448 101.796C100.448 103.821 100.66 105.454 101.085 106.696C101.542 107.937 102.212 108.835 103.094 109.391C104.009 109.913 105.152 110.175 106.524 110.175C107.177 110.175 107.765 110.109 108.288 109.979C108.843 109.848 109.317 109.652 109.709 109.391C110.134 109.097 110.444 108.737 110.64 108.313C110.869 107.888 110.983 107.382 110.983 106.794V106.745H105.544V99.7376H120.538V117.966H112.992L112.061 109.293L113.825 111.204C113.27 113.523 112.11 115.32 110.346 116.594C108.615 117.835 106.312 118.456 103.437 118.456Z" fill="black"/>
</g>
<defs>
<clipPath id="clip0_1_2">
<rect width="128" height="128" fill="white"/>
</clipPath>
</defs>
</svg>
