<svg width="128" height="128" viewBox="0 0 128 128" fill="none" xmlns="http://www.w3.org/2000/svg">
<g clip-path="url(#clip0_1_2)">
<rect width="128" height="128" fill="#FFEB3C"/>
<path d="M29.266 121H21.174L20.154 116.716H14.102L13.048 121H5.16L12.436 98.56H21.956L29.266 121ZM15.292 111.786H18.998L17.162 104L15.292 111.786ZM59.4734 98.56V121H52.5714V113.214L52.6734 105.666H52.5714L48.2194 121H41.8954L37.6114 105.666H37.4754L37.5774 113.214V121H30.6414V98.56H41.7254L44.3094 108.522L45.2954 112.704H45.3634L46.3494 108.522L48.9334 98.56H59.4734ZM70.8036 98.56V121H62.8816V98.56H70.8036ZM83.6559 121.34C81.7292 121.34 79.9952 120.921 78.4539 120.082C76.9126 119.221 75.6999 117.94 74.8159 116.24C73.9319 114.517 73.4899 112.387 73.4899 109.848C73.4899 107.4 73.9432 105.315 74.8499 103.592C75.7792 101.847 77.1166 100.521 78.8619 99.614C80.6072 98.6847 82.6926 98.22 85.1179 98.22C87.8832 98.22 90.0932 98.7073 91.7479 99.682C93.4252 100.657 94.7059 102.221 95.5899 104.374L88.2119 107.026C88.0532 105.961 87.7019 105.224 87.1579 104.816C86.6366 104.385 85.9792 104.17 85.1859 104.17C84.3246 104.17 83.6219 104.374 83.0779 104.782C82.5566 105.19 82.1712 105.813 81.9219 106.652C81.6952 107.468 81.5819 108.511 81.5819 109.78C81.5819 111.185 81.7292 112.319 82.0239 113.18C82.3412 114.041 82.8059 114.665 83.4179 115.05C84.0526 115.413 84.8459 115.594 85.7979 115.594C86.2512 115.594 86.6592 115.549 87.0219 115.458C87.4072 115.367 87.7359 115.231 88.0079 115.05C88.3026 114.846 88.5179 114.597 88.6539 114.302C88.8126 114.007 88.8919 113.656 88.8919 113.248V113.214H85.1179V108.352H95.5219V121H90.2859L89.6399 114.982L90.8639 116.308C90.4786 117.917 89.6739 119.164 88.4499 120.048C87.2486 120.909 85.6506 121.34 83.6559 121.34ZM109.451 98.22C111.831 98.22 113.871 98.6733 115.571 99.58C117.271 100.487 118.574 101.801 119.481 103.524C120.388 105.247 120.841 107.332 120.841 109.78C120.841 112.228 120.388 114.313 119.481 116.036C118.574 117.759 117.271 119.073 115.571 119.98C113.871 120.887 111.831 121.34 109.451 121.34C107.094 121.34 105.054 120.887 103.331 119.98C101.631 119.073 100.316 117.759 99.387 116.036C98.4803 114.313 98.027 112.228 98.027 109.78C98.027 107.332 98.4803 105.247 99.387 103.524C100.316 101.801 101.631 100.487 103.331 99.58C105.054 98.6733 107.094 98.22 109.451 98.22ZM109.451 104.17C108.68 104.17 108.046 104.374 107.547 104.782C107.071 105.167 106.708 105.768 106.459 106.584C106.232 107.4 106.119 108.465 106.119 109.78C106.119 111.072 106.232 112.137 106.459 112.976C106.708 113.792 107.071 114.404 107.547 114.812C108.046 115.197 108.68 115.39 109.451 115.39C110.222 115.39 110.845 115.197 111.321 114.812C111.82 114.404 112.182 113.792 112.409 112.976C112.636 112.137 112.749 111.072 112.749 109.78C112.749 108.465 112.636 107.4 112.409 106.584C112.182 105.768 111.82 105.167 111.321 104.782C110.845 104.374 110.222 104.17 109.451 104.17Z" fill="black"/>
</g>
<defs>
<clipPath id="clip0_1_2">
<rect width="128" height="128" fill="white"/>
</clipPath>
</defs>
</svg>
